<svg version="1.1" viewBox="0.0 0.0 3152.230971128609 650.0708661417323" fill="none" stroke="none" stroke-linecap="square" stroke-miterlimit="10" xmlns:xlink="http://www.w3.org/1999/xlink" xmlns="http://www.w3.org/2000/svg"><clipPath id="p.0"><path d="m0 0l3152.231 0l0 650.07086l-3152.231 0l0 -650.07086z" clip-rule="nonzero"/></clipPath><g clip-path="url(#p.0)"><path fill="#000000" fill-opacity="0.0" d="m0 0l3152.231 0l0 650.07086l-3152.231 0z" fill-rule="evenodd"/><path fill="#cfe2f3" d="m0 3.448819l3152.2205 0l0 427.1811l-3152.2205 0z" fill-rule="evenodd"/><path fill="#e8f5b4" d="m0 272.0209l3152.2205 0l0 160.6614l-3152.2205 0z" fill-rule="evenodd"/><path fill="#aed076" fill-opacity="0.9608" d="m688.8127 226.38008l0 0c0 -22.454788 18.958557 -40.658005 42.345093 -40.658005l0 0c11.230652 0 22.001282 4.2836 29.942505 11.908463c7.941223 7.6248474 12.402588 17.96637 12.402588 28.749542l0 0c0 22.454803 -18.958557 40.658005 -42.345093 40.658005l0 0c-23.386536 0 -42.345093 -18.203201 -42.345093 -40.658005z" fill-rule="evenodd"/><path fill="#a65500" d="m732.25934 251.15579l0.90130615 -0.828537l-23.571533 -20.831528z" fill-rule="evenodd"/><path fill="#a65500" d="m732.043 237.11644l-0.6918335 -0.94270325l16.9505 -9.814285z" fill-rule="evenodd"/><path fill="#a65500" d="m729.59033 326.25024l2.4266357 -116.27042l2.4265747 116.27042z" fill-rule="evenodd"/><path fill="#aed076" fill-opacity="0.9608" d="m959.2926 109.91537l0 0c0 -40.20781 -33.56421 -72.80269 -74.96777 -72.80269l0 0c-19.88269 0 -38.95099 7.6702614 -53.010193 21.323414c-14.059204 13.653152 -21.95752 32.1708 -21.95752 51.47927l0 0c0 40.207817 33.564148 72.8027 74.96771 72.8027l0 0c41.403564 0 74.96777 -32.59488 74.96777 -72.8027z" fill-rule="evenodd"/><path fill="#a65500" d="m885.0655 131.25156l-1.4334717 -1.4728241l23.163208 -22.317688z" fill-rule="evenodd"/><path fill="#a65500" d="m883.2711 165.1184l2.137207 -2.461792l-41.98346 -36.23018z" fill-rule="evenodd"/><path fill="#aed076" fill-opacity="0.9608" d="m861.4034 202.546l0 0c0 -15.954758 -12.989624 -28.888641 -29.013123 -28.888641l0 0c-7.694763 0 -15.074402 3.0436096 -20.51538 8.461288c-5.44104 5.417679 -8.497742 12.76561 -8.497742 20.427353l0 0c0 15.954773 12.989624 28.888657 29.013123 28.888657l0 0c16.023499 0 29.013123 -12.933884 29.013123 -28.888657z" fill-rule="evenodd"/><path fill="#a65500" d="m883.3905 244.51454l1.5612793 -2.63562l-54.238342 -32.087006z" fill-rule="evenodd"/><path fill="#aed076" fill-opacity="0.9608" d="m942.34393 232.57611l0 0c0 -11.863968 -9.637268 -21.481613 -21.525452 -21.481613l0 0c-5.7089233 0 -11.184021 2.2632294 -15.220886 6.2918243c-4.036804 4.0285797 -6.3046265 9.492508 -6.3046265 15.189789l0 0c0 11.863953 9.637268 21.481598 21.525513 21.481598l0 0c11.888184 0 21.525452 -9.617645 21.525452 -21.481598z" fill-rule="evenodd"/><path fill="#a65500" d="m888.2932 273.1073l-1.9147949 -2.3408203l37.48767 -30.339066z" fill-rule="evenodd"/><path fill="#a65500" d="m890.0716 338.48633l-5.3898315 -259.53275l-5.3897705 259.53275z" fill-rule="evenodd"/><path fill="#000000" d="m821.7279 340.10947l0 0l0 0c2.362976 0 4.6292114 0.9386902 6.30011 2.6095886c1.6708984 1.6708984 2.6096191 3.9371033 2.6096191 6.30011l0 23.31128c0 9.1552734E-5 -6.1035156E-5 1.5258789E-4 -1.8310547E-4 1.5258789E-4l-17.819275 -1.5258789E-4l0 0c-6.1035156E-5 0 -1.2207031E-4 -6.1035156E-5 -1.2207031E-4 -1.5258789E-4l1.2207031E-4 -23.311127l0 0c0 -4.920685 3.9890137 -8.9096985 8.909729 -8.9096985z" fill-rule="evenodd"/><path stroke="#000000" stroke-width="1.0" stroke-linejoin="round" stroke-linecap="butt" d="m821.7279 340.10947l0 0l0 0c2.362976 0 4.6292114 0.9386902 6.30011 2.6095886c1.6708984 1.6708984 2.6096191 3.9371033 2.6096191 6.30011l0 23.31128c0 9.1552734E-5 -6.1035156E-5 1.5258789E-4 -1.8310547E-4 1.5258789E-4l-17.819275 -1.5258789E-4l0 0c-6.1035156E-5 0 -1.2207031E-4 -6.1035156E-5 -1.2207031E-4 -1.5258789E-4l1.2207031E-4 -23.311127l0 0c0 -4.920685 3.9890137 -8.9096985 8.909729 -8.9096985z" fill-rule="evenodd"/><path fill="#000000" d="m824.71936 163.46481l-5.985779 0l0 177.88428l5.985779 0z" fill-rule="evenodd"/><path fill="#000000" d="m817.08594 147.07602l0 0c0 -2.7955017 2.2661743 -5.0617065 5.0617065 -5.0617065l0 0l0 0c1.3424072 0 2.6298828 0.5332947 3.5791626 1.482544c0.94921875 0.94924927 1.482544 2.2367249 1.482544 3.5791626l0 20.55632c0 2.7955017 -2.2662354 5.0617065 -5.0617065 5.0617065l0 0l0 0c-2.7955322 0 -5.0617065 -2.2662048 -5.0617065 -5.0617065z" fill-rule="evenodd"/><path stroke="#000000" stroke-width="1.0" stroke-linejoin="round" stroke-linecap="butt" d="m817.08594 147.07602l0 0c0 -2.7955017 2.2661743 -5.0617065 5.0617065 -5.0617065l0 0l0 0c1.3424072 0 2.6298828 0.5332947 3.5791626 1.482544c0.94921875 0.94924927 1.482544 2.2367249 1.482544 3.5791626l0 20.55632c0 2.7955017 -2.2662354 5.0617065 -5.0617065 5.0617065l0 0l0 0c-2.7955322 0 -5.0617065 -2.2662048 -5.0617065 -5.0617065z" fill-rule="evenodd"/><path fill="#fff2cc" d="m836.7006 131.5454l-7.5856934 30.679733l-15.171326 0l-7.5856934 -30.679733z" fill-rule="evenodd"/><path stroke="#fff2cc" stroke-width="1.0" stroke-linejoin="round" stroke-linecap="butt" d="m836.7006 131.5454l-7.5856934 30.679733l-15.171326 0l-7.5856934 -30.679733z" fill-rule="evenodd"/><path fill="#000000" d="m822.18365 163.47786l6.420227 -33.66774l3.703186 0.6325073l-6.420227 33.667725z" fill-rule="evenodd"/><path stroke="#fff2cc" stroke-width="1.0" stroke-linejoin="round" stroke-linecap="butt" d="m822.18365 163.47786l6.420227 -33.66774l3.703186 0.6325073l-6.420227 33.667725z" fill-rule="evenodd"/><path fill="#000000" d="m815.39136 164.15013l-7.923584 -33.282425l3.6204224 -1.0904999l7.923584 33.28241z" fill-rule="evenodd"/><path stroke="#fff2cc" stroke-width="1.0" stroke-linejoin="round" stroke-linecap="butt" d="m815.39136 164.15013l-7.923584 -33.282425l3.6204224 -1.0904999l7.923584 33.28241z" fill-rule="evenodd"/><path fill="#000000" d="m812.62054 164.53702l0 0c0 -1.276825 3.9890137 -2.3118896 8.909668 -2.3118896l0 0c4.9207153 0 8.909729 1.0350647 8.909729 2.3118896l0 0c0 1.276825 -3.9890137 2.3118896 -8.909729 2.3118896l0 0c-4.9206543 0 -8.909668 -1.0350647 -8.909668 -2.3118896z" fill-rule="evenodd"/><path stroke="#000000" stroke-width="1.0" stroke-linejoin="round" stroke-linecap="butt" d="m812.62054 164.53702l0 0c0 -1.276825 3.9890137 -2.3118896 8.909668 -2.3118896l0 0c4.9207153 0 8.909729 1.0350647 8.909729 2.3118896l0 0c0 1.276825 -3.9890137 2.3118896 -8.909729 2.3118896l0 0c-4.9206543 0 -8.909668 -1.0350647 -8.909668 -2.3118896z" fill-rule="evenodd"/><path fill="#000000" d="m802.94226 130.9749l0 0c0 -0.6131439 1.8875732 -1.2011871 5.2474976 -1.6347504c3.3598633 -0.43356323 7.91687 -0.6771393 12.668518 -0.6771393l0 0c9.894714 0 17.915955 1.03508 17.915955 2.3118896l0 0c0 1.276825 -8.02124 2.3118896 -17.915955 2.3118896l0 0c-9.894714 0 -17.916016 -1.0350647 -17.916016 -2.3118896z" fill-rule="evenodd"/><path stroke="#000000" stroke-width="1.0" stroke-linejoin="round" stroke-linecap="butt" d="m802.94226 130.9749l0 0c0 -0.6131439 1.8875732 -1.2011871 5.2474976 -1.6347504c3.3598633 -0.43356323 7.91687 -0.6771393 12.668518 -0.6771393l0 0c9.894714 0 17.915955 1.03508 17.915955 2.3118896l0 0c0 1.276825 -8.02124 2.3118896 -17.915955 2.3118896l0 0c-9.894714 0 -17.916016 -1.0350647 -17.916016 -2.3118896z" fill-rule="evenodd"/><path fill="#f9cb9c" d="m821.67896 155.93652l0 0l0 0c-0.6437988 0 -1.2612305 -0.25575256 -1.7164917 -0.7109833c-0.4552002 -0.4552307 -0.7109375 -1.0726471 -0.7109375 -1.7164459l0 -21.069473c0 -1.5258789E-5 0 -4.5776367E-5 0 -4.5776367E-5l4.8547974 4.5776367E-5l0 0c6.1035156E-5 0 6.1035156E-5 1.5258789E-5 6.1035156E-5 4.5776367E-5l-6.1035156E-5 21.069427l0 0c0 1.3406372 -1.086792 2.4274292 -2.4273682 2.4274292z" fill-rule="evenodd"/><path fill="#000000" fill-opacity="0.0" d="m820.4328 137.34157l0 11.16684" fill-rule="evenodd"/><path stroke="#ffffff" stroke-width="1.0" stroke-linejoin="round" stroke-linecap="butt" d="m820.4328 137.34157l0 11.16684" fill-rule="evenodd"/><path fill="#000000" d="m811.9021 123.75698l19.65033 0c0.6131592 0 1.2011719 0.24356842 1.6347656 0.67713165c0.4335327 0.43356323 0.677124 1.0215988 0.677124 1.6347504l0 2.3118896c0 1.0681152E-4 -6.1035156E-5 1.9836426E-4 -1.8310547E-4 1.9836426E-4l-24.273926 -1.9836426E-4l0 0c-1.2207031E-4 0 -2.4414062E-4 -9.1552734E-5 -2.4414062E-4 -2.1362305E-4l2.4414062E-4 -2.311676l0 0c0 -1.2768173 1.0350342 -2.311882 2.3118896 -2.311882z" fill-rule="evenodd"/><path stroke="#000000" stroke-width="1.0" stroke-linejoin="round" stroke-linecap="butt" d="m811.9021 123.75698l19.65033 0c0.6131592 0 1.2011719 0.24356842 1.6347656 0.67713165c0.4335327 0.43356323 0.677124 1.0215988 0.677124 1.6347504l0 2.3118896c0 1.0681152E-4 -6.1035156E-5 1.9836426E-4 -1.8310547E-4 1.9836426E-4l-24.273926 -1.9836426E-4l0 0c-1.2207031E-4 0 -2.4414062E-4 -9.1552734E-5 -2.4414062E-4 -2.1362305E-4l2.4414062E-4 -2.311676l0 0c0 -1.2768173 1.0350342 -2.311882 2.3118896 -2.311882z" fill-rule="evenodd"/><path fill="#000000" d="m813.23816 126.15113l6.1480103 -11.166847l5.5233765 0l6.1480103 11.166847z" fill-rule="evenodd"/><path stroke="#000000" stroke-width="1.0" stroke-linejoin="round" stroke-linecap="butt" d="m813.23816 126.15113l6.1480103 -11.166847l5.5233765 0l6.1480103 11.166847z" fill-rule="evenodd"/><path fill="#000000" d="m818.73303 115.00815l0 0c0 -3.083641 1.3399658 -5.58342 2.99292 -5.58342l0 0c0.7937622 0 1.5549927 0.5882492 2.116272 1.6353455c0.5612793 1.0470963 0.8765869 2.4672623 0.8765869 3.9480743l0 0c0 3.083641 -1.3399658 5.58342 -2.992859 5.58342l0 0c-1.6529541 0 -2.99292 -2.4997787 -2.99292 -5.58342z" fill-rule="evenodd"/><path stroke="#000000" stroke-width="1.0" stroke-linejoin="round" stroke-linecap="butt" d="m818.73303 115.00815l0 0c0 -3.083641 1.3399658 -5.58342 2.99292 -5.58342l0 0c0.7937622 0 1.5549927 0.5882492 2.116272 1.6353455c0.5612793 1.0470963 0.8765869 2.4672623 0.8765869 3.9480743l0 0c0 3.083641 -1.3399658 5.58342 -2.992859 5.58342l0 0c-1.6529541 0 -2.99292 -2.4997787 -2.99292 -5.58342z" fill-rule="evenodd"/><path fill="#000000" d="m815.594 361.16357l13.1073 0l0 0c1.4807739 0 2.90094 0.58825684 3.948059 1.6353455c1.0470581 1.0470886 1.635315 2.4672546 1.635315 3.948059l0 5.583435c0 1.2207031E-4 -6.1035156E-5 1.8310547E-4 -1.8310547E-4 1.8310547E-4l-24.273926 -1.8310547E-4l0 0c-1.2207031E-4 0 -2.4414062E-4 -9.1552734E-5 -2.4414062E-4 -2.1362305E-4l2.4414062E-4 -5.5832214l0 0c0 -3.0836182 2.4997559 -5.5834045 5.583435 -5.5834045z" fill-rule="evenodd"/><path stroke="#000000" stroke-width="1.0" stroke-linejoin="round" stroke-linecap="butt" d="m815.594 361.16357l13.1073 0l0 0c1.4807739 0 2.90094 0.58825684 3.948059 1.6353455c1.0470581 1.0470886 1.635315 2.4672546 1.635315 3.948059l0 5.583435c0 1.2207031E-4 -6.1035156E-5 1.8310547E-4 -1.8310547E-4 1.8310547E-4l-24.273926 -1.8310547E-4l0 0c-1.2207031E-4 0 -2.4414062E-4 -9.1552734E-5 -2.4414062E-4 -2.1362305E-4l2.4414062E-4 -5.5832214l0 0c0 -3.0836182 2.4997559 -5.5834045 5.583435 -5.5834045z" fill-rule="evenodd"/><path fill="#000000" d="m817.0857 323.4508l0 0c0 -2.7955017 2.2661743 -5.0617065 5.0617065 -5.0617065l0 0l0 0c1.3424072 0 2.6298828 0.5332947 3.5791626 1.482544c0.94921875 0.94924927 1.482544 2.2367249 1.482544 3.5791626l0 39.458527c0 2.7955017 -2.2662354 5.0617065 -5.0617065 5.0617065l0 0l0 0c-2.7955322 0 -5.0617065 -2.2662048 -5.0617065 -5.0617065z" fill-rule="evenodd"/><path fill="#a07f62" d="m0.6850294 423.85565l3152.2205 0l0 223.93701l-3152.2205 0z" fill-rule="evenodd"/><path fill="#8d7056" d="m633.05725 281.56784l0 71.9151l-5.5268555 0l0 -71.9151z" fill-rule="evenodd"/><path fill="#8d7056" d="m752.55 281.56784l0 71.9151l-5.5269165 0l0 -71.9151z" fill-rule="evenodd"/><path fill="#c5996d" fill-opacity="0.9608" d="m605.9151 286.17416l169.11035 0l0 5.982544l-169.11035 0z" fill-rule="evenodd"/><path fill="#c5996d" fill-opacity="0.9608" d="m605.9151 297.51132l169.11035 0l0 5.982544l-169.11035 0z" fill-rule="evenodd"/><path fill="#c5996d" fill-opacity="0.9608" d="m605.9151 309.2706l169.11035 0l0 5.9825134l-169.11035 0z" fill-rule="evenodd"/><path fill="#c5996d" fill-opacity="0.9608" d="m605.91486 321.03125l169.11035 0l0 5.982544l-169.11035 0z" fill-rule="evenodd"/><path fill="#8d7056" d="m615.90594 331.00168l0 35.614777l-6.1621704 0l0 -35.614777z" fill-rule="evenodd"/><path fill="#8d7056" d="m770.90155 331.00168l0 35.614777l-6.1621704 0l0 -35.614777z" fill-rule="evenodd"/><path fill="#c5996d" fill-opacity="0.9608" d="m599.1309 329.79953l182.67346 0l0 5.982544l-182.67346 0z" fill-rule="evenodd"/><path fill="#aed076" fill-opacity="0.9608" d="m71.81407 185.63362l0 0c0 -25.753006 21.589043 -46.62993 48.220474 -46.62993l0 0c12.788864 0 25.053925 4.912781 34.09703 13.657593c9.043091 8.744797 14.123444 20.6053 14.123444 32.972336l0 0c0 25.75299 -21.589035 46.629913 -48.220474 46.629913l0 0c-26.631432 0 -48.220474 -20.876923 -48.220474 -46.629913z" fill-rule="evenodd"/><path fill="#a65500" d="m121.29841 214.00801l1.0265274 -0.9497223l-26.847153 -23.878433z" fill-rule="evenodd"/><path fill="#a65500" d="m121.05204 197.9152l-0.788002 -1.0805969l19.306107 -11.249756z" fill-rule="evenodd"/><path fill="#a65500" d="m118.2585 300.0861l2.7638168 -133.27661l2.7638168 133.27661z" fill-rule="evenodd"/><path fill="#a65500" d="m550.22314 377.30066l-8.707886 0.5096741l4.353943 -34.206696z" fill-rule="evenodd"/><path fill="#aed076" fill-opacity="0.9608" d="m576.72076 330.95035l0 0c0 -18.576813 -14.451355 -33.63629 -32.277954 -33.63629l0 0c-8.560608 0 -16.77063 3.5437927 -22.823914 9.851837c-6.0532837 6.308014 -9.4539795 14.863556 -9.4539795 23.784454l0 0c0 18.576813 14.451294 33.63629 32.277893 33.63629l0 0c17.8266 0 32.277954 -15.059479 32.277954 -33.63629z" fill-rule="evenodd"/><path fill="#a65500" d="m68.217865 341.2005l-5.6119957 0.3320923l2.805996 -43.428772z" fill-rule="evenodd"/><path fill="#aed076" fill-opacity="0.9608" d="m90.31894 306.44705l0 0c0 -13.794067 -10.709915 -24.97638 -23.921257 -24.97638l0 0c-6.3443146 0 -12.428783 2.6314392 -16.91489 7.3154297c-4.486103 4.6839905 -7.0063744 11.036804 -7.0063744 17.66095l0 0c0 13.794098 10.709915 24.97638 23.921265 24.97638l0 0c13.211342 0 23.921257 -11.1822815 23.921257 -24.97638z" fill-rule="evenodd"/><path fill="#aed076" fill-opacity="0.9608" d="m238.6043 125.76103l0 0c0 -37.407143 30.309341 -67.73162 67.6978 -67.73162l0 0c17.95456 0 35.173767 7.135994 47.869568 19.838135c12.695801 12.702141 19.828247 29.929947 19.828247 47.893486l0 0c0 37.40715 -30.309357 67.73163 -67.697815 67.73163l0 0c-37.38846 0 -67.6978 -30.324478 -67.6978 -67.73163z" fill-rule="evenodd"/><path fill="#a65500" d="m303.1751 142.34248l1.0018921 -1.7784729l-27.028961 -15.993645z" fill-rule="evenodd"/><path fill="#a65500" d="m303.45795 160.97612l1.7142944 2.427887l25.822601 -22.38005z" fill-rule="evenodd"/><path fill="#aed076" fill-opacity="0.9608" d="m317.10953 231.18689l0 0c0 -13.199478 10.1527405 -23.89975 22.676788 -23.89975l0 0c6.0142517 0 11.782166 2.51799 16.034882 7.0000763c4.252716 4.482071 6.641876 10.561066 6.641876 16.899673l0 0c0 13.199463 -10.1527405 23.89975 -22.676758 23.89975l0 0c-12.524048 0 -22.676788 -10.700287 -22.676788 -23.89975z" fill-rule="evenodd"/><path fill="#a65500" d="m305.43243 258.66458l-1.5862732 -2.761917l37.50653 -22.282516z" fill-rule="evenodd"/><path fill="#a65500" d="m298.88263 352.51004l5.2256775 -259.53275l5.2256775 259.53275z" fill-rule="evenodd"/><path fill="#666666" d="m259.38925 309.8007l5.3861694 0l0 32.4252l-5.3861694 0z" fill-rule="evenodd"/><path fill="#666666" d="m224.01357 253.37502l25.60852 0l0 0c4.019058 0 7.8734894 1.5965576 10.715408 4.4384613c2.8418884 2.8418884 4.438446 6.69635 4.438446 10.715393l0 61.781525c0 2.4414062E-4 -2.1362305E-4 4.5776367E-4 -4.5776367E-4 4.5776367E-4l-55.915787 -4.5776367E-4l0 0c-2.593994E-4 0 -4.5776367E-4 -2.1362305E-4 -4.5776367E-4 -4.5776367E-4l4.5776367E-4 -61.781067l0 0c0 -8.369232 6.784622 -15.153854 15.15387 -15.153854z" fill-rule="evenodd"/><path fill="#b7b7b7" d="m220.79367 260.4008l32.04831 0c1.2947693 0 2.5365295 0.5143738 3.452057 1.4299011c0.91555786 0.91555786 1.4299011 2.157318 1.4299011 3.4520874l0 13.132019c0 1.8310547E-4 -1.5258789E-4 3.6621094E-4 -3.3569336E-4 3.6621094E-4l-41.811905 -3.6621094E-4l0 0c-1.9836426E-4 0 -3.5095215E-4 -1.5258789E-4 -3.5095215E-4 -3.3569336E-4l3.5095215E-4 -13.131683l0 0c0 -2.696228 2.18573 -4.8819885 4.8819733 -4.8819885z" fill-rule="evenodd"/><path stroke="#666666" stroke-width="1.0" stroke-linejoin="round" stroke-linecap="butt" d="m220.79367 260.4008l32.04831 0c1.2947693 0 2.5365295 0.5143738 3.452057 1.4299011c0.91555786 0.91555786 1.4299011 2.157318 1.4299011 3.4520874l0 13.132019c0 1.8310547E-4 -1.5258789E-4 3.6621094E-4 -3.3569336E-4 3.6621094E-4l-41.811905 -3.6621094E-4l0 0c-1.9836426E-4 0 -3.5095215E-4 -1.5258789E-4 -3.5095215E-4 -3.3569336E-4l3.5095215E-4 -13.131683l0 0c0 -2.696228 2.18573 -4.8819885 4.8819733 -4.8819885z" fill-rule="evenodd"/><path fill="#666666" d="m208.98642 309.8007l5.3861694 0l0 32.4252l-5.3861694 0z" fill-rule="evenodd"/><path fill="#999999" d="m215.9117 300.23032l41.81224 0l0 5.446747l-41.81224 0z" fill-rule="evenodd"/><path fill="#999999" d="m215.97647 314.06183l41.812256 0l0 5.446747l-41.812256 0z" fill-rule="evenodd"/><path fill="#999999" d="m215.9117 286.39713l41.81224 0l0 5.446747l-41.81224 0z" fill-rule="evenodd"/><path fill="#aed076" fill-opacity="0.9608" d="m1008.0012 230.80394l0 0c0 -15.461685 12.010864 -27.99585 26.827026 -27.99585l0 0c7.11499 0 13.938599 2.9495544 18.969727 8.199783c5.031006 5.250244 7.857422 12.371109 7.857422 19.796066l0 0c0 15.461685 -12.010864 27.995865 -26.827148 27.995865l0 0c-14.816162 0 -26.827026 -12.53418 -26.827026 -27.995865z" fill-rule="evenodd"/><path fill="#a65500" d="m1033.5891 248.134l0.39709473 -0.73509216l-10.710999 -6.6107483z" fill-rule="evenodd"/><path fill="#a65500" d="m1031.8882 324.52725l2.0708008 -107.27399l2.0708008 107.27399z" fill-rule="evenodd"/><path fill="#a65500" d="m1033.7012 241.0702l0.67944336 1.00354l10.23291 -9.250473z" fill-rule="evenodd"/><path fill="#a65500" d="m1080.3583 300.42358l-4.361206 0.27478027l2.180664 -18.442322z" fill-rule="evenodd"/><path fill="#aed076" fill-opacity="0.9608" d="m1093.6293 275.43408l0 0c0 -10.0155945 -7.237793 -18.134827 -16.166016 -18.134827l0 0c-4.2873535 0 -8.399292 1.9106445 -11.43103 5.3115845c-3.0316162 3.40094 -4.7348633 8.01358 -4.7348633 12.823242l0 0c0 10.0155945 7.237793 18.134827 16.165894 18.134827l0 0c8.928223 0 16.166016 -8.119232 16.166016 -18.134827z" fill-rule="evenodd"/><path fill="#aed076" fill-opacity="0.9608" d="m372.88922 219.16449l0 0c0 -20.086563 16.232513 -36.369934 36.256287 -36.369934l0 0c9.615784 0 18.837708 3.8318176 25.637054 10.652496c6.7993774 6.820694 10.619232 16.071533 10.619232 25.717438l0 0c0 20.086563 -16.232483 36.369934 -36.256287 36.369934l0 0c-20.023773 0 -36.256287 -16.283371 -36.256287 -36.369934z" fill-rule="evenodd"/><path fill="#a65500" d="m409.01898 247.57184l-0.7809448 -0.66049194l18.381134 -17.183899z" fill-rule="evenodd"/><path fill="#a65500" d="m408.79404 240.01335l0.6481323 -0.58851624l-16.950348 -14.796524z" fill-rule="evenodd"/><path fill="#aed076" fill-opacity="0.9608" d="m398.70334 272.00806l0 0c0 -5.2618713 -4.275421 -9.527435 -9.549438 -9.527435l0 0c-2.5326538 0 -4.9615784 1.0037842 -6.7524414 2.7905273c-1.790863 1.7867126 -2.7969666 4.2100525 -2.7969666 6.736908l0 0c0 5.261841 4.275421 9.527435 9.549408 9.527435l0 0c5.2740173 0 9.549438 -4.2655945 9.549438 -9.527435z" fill-rule="evenodd"/><path fill="#a65500" d="m409.36887 282.4144l-0.8794861 1.1496887l-19.717194 -13.274536z" fill-rule="evenodd"/><path fill="#a65500" d="m406.11395 311.17795l2.8309631 -98.32451l2.8309937 98.32451z" fill-rule="evenodd"/><path fill="#aed076" fill-opacity="0.9608" d="m1062.7488 162.32121l0 0c0 -33.011337 27.808228 -59.77231 62.111572 -59.77231l0 0c16.4729 0 32.27124 6.2974243 43.919434 17.506905c11.648193 11.20948 18.192017 26.412804 18.192017 42.265404l0 0c0 33.011322 -27.808228 59.772293 -62.11145 59.772293l0 0c-34.303345 0 -62.111572 -26.760971 -62.111572 -59.772293z" fill-rule="evenodd"/><path fill="#a65500" d="m1124.2057 184.24577l1.0318604 -1.6127014l-27.055786 -14.07103z" fill-rule="evenodd"/><path fill="#aed076" fill-opacity="0.9608" d="m1138.5558 243.07137l0 0c0 -14.313065 12.737305 -25.916077 28.449585 -25.916077l0 0c15.71228 0 28.449585 11.603012 28.449585 25.916077l0 0c0 14.313034 -12.737305 25.916061 -28.449585 25.916061l0 0c-15.71228 0 -28.449585 -11.603027 -28.449585 -25.916061z" fill-rule="evenodd"/><path fill="#a65500" d="m1125.5011 271.7074l-2.1690674 -3.3499756l39.62854 -20.358994z" fill-rule="evenodd"/><path fill="#a65500" d="m1118.9789 372.9131l5.285034 -232.8274l5.2851562 232.8274z" fill-rule="evenodd"/><path fill="#a65500" d="m1122.4707 182.91046l0.90734863 1.8746033l26.276245 -17.16397z" fill-rule="evenodd"/><path fill="#aed076" fill-opacity="0.9608" d="m1861.8792 204.74306l0 0c0 -20.42897 16.90625 -36.989914 37.76111 -36.989914l0 0c10.0147705 0 19.619507 3.8971405 26.70105 10.834091c7.081543 6.9369507 11.059937 16.34549 11.059937 26.155823l0 0c0 20.428955 -16.906128 36.989914 -37.760986 36.989914l0 0c-20.854858 0 -37.76111 -16.560959 -37.76111 -36.989914z" fill-rule="evenodd"/><path fill="#a65500" d="m1900.6226 227.28354l0.80371094 -0.7537842l-21.019775 -18.952148z" fill-rule="evenodd"/><path fill="#a65500" d="m1900.4297 214.51079l-0.6170654 -0.85765076l15.115601 -8.928848z" fill-rule="evenodd"/><path fill="#a65500" d="m1898.2424 295.60312l2.1639404 -105.78073l2.1639404 105.78073z" fill-rule="evenodd"/><path fill="#a65500" d="m1995.3354 357.89908l-10.7229 0.588501l5.36145 -39.498535z" fill-rule="evenodd"/><path fill="#aed076" fill-opacity="0.9608" d="m2027.9647 304.37823l0 0c0 -21.450714 -17.79541 -38.839966 -39.74707 -38.839966l0 0c-10.541626 0 -20.65149 4.0920715 -28.10559 11.375977c-7.4539795 7.283905 -11.641602 17.162994 -11.641602 27.46399l0 0c0 21.450714 17.79541 38.839935 39.747192 38.839935l0 0c21.95166 0 39.74707 -17.389221 39.74707 -38.839935z" fill-rule="evenodd"/><path fill="#aed076" fill-opacity="0.9608" d="m1879.9893 114.65046l0 0c0 -38.616547 -35.14563 -69.92145 -78.49988 -69.92145l0 0c-43.354126 0 -78.499756 31.304901 -78.499756 69.92145l0 0c0 38.616554 35.14563 69.92144 78.499756 69.92144l0 0c43.354248 0 78.49988 -31.304886 78.49988 -69.92144z" fill-rule="evenodd"/><path fill="#a65500" d="m1802.265 135.14224l-1.5009766 -1.4145355l24.254395 -21.43444z" fill-rule="evenodd"/><path fill="#a65500" d="m1800.386 167.66876l2.238037 -2.3643646l-43.961548 -34.796326z" fill-rule="evenodd"/><path fill="#aed076" fill-opacity="0.9608" d="m1777.488 203.61514l0 0c0 -15.323334 -13.6015625 -27.745346 -30.380005 -27.745346l0 0c-16.778442 0 -30.380127 12.422012 -30.380127 27.745346l0 0c0 15.323334 13.601685 27.745361 30.380127 27.745361l0 0c16.778442 0 30.380005 -12.422028 30.380005 -27.745361z" fill-rule="evenodd"/><path fill="#a65500" d="m1800.5111 243.92271l1.6347656 -2.5312958l-56.7937 -30.817123z" fill-rule="evenodd"/><path fill="#aed076" fill-opacity="0.9608" d="m1862.2421 232.45676l0 0c0 -11.394424 -10.091309 -20.63144 -22.539673 -20.63144l0 0c-12.448242 0 -22.539673 9.237015 -22.539673 20.63144l0 0c0 11.39444 10.091431 20.631454 22.539673 20.631454l0 0c12.448364 0 22.539673 -9.237015 22.539673 -20.631454z" fill-rule="evenodd"/><path fill="#a65500" d="m1805.6448 271.38388l-2.005005 -2.248169l39.253906 -29.138367z" fill-rule="evenodd"/><path fill="#a65500" d="m1807.507 334.17548l-5.643799 -249.26144l-5.6436768 249.26144z" fill-rule="evenodd"/><path fill="#000000" d="m1960.0457 341.32196l0 0l0 0c2.363037 0 4.6292725 0.9387207 6.300171 2.6095886c1.6708984 1.6708984 2.6096191 3.9371338 2.6096191 6.3001404l0 23.31128c0 6.1035156E-5 -1.2207031E-4 1.2207031E-4 -2.4414062E-4 1.2207031E-4l-17.819214 -1.2207031E-4l0 0c-1.2207031E-4 0 -1.2207031E-4 -9.1552734E-5 -1.2207031E-4 -1.5258789E-4l1.2207031E-4 -23.311127l0 0c0 -4.9207153 3.9890137 -8.909729 8.909668 -8.909729z" fill-rule="evenodd"/><path stroke="#000000" stroke-width="1.0" stroke-linejoin="round" stroke-linecap="butt" d="m1960.0457 341.32196l0 0l0 0c2.363037 0 4.6292725 0.9387207 6.300171 2.6095886c1.6708984 1.6708984 2.6096191 3.9371338 2.6096191 6.3001404l0 23.31128c0 6.1035156E-5 -1.2207031E-4 1.2207031E-4 -2.4414062E-4 1.2207031E-4l-17.819214 -1.2207031E-4l0 0c-1.2207031E-4 0 -1.2207031E-4 -9.1552734E-5 -1.2207031E-4 -1.5258789E-4l1.2207031E-4 -23.311127l0 0c0 -4.9207153 3.9890137 -8.909729 8.909668 -8.909729z" fill-rule="evenodd"/><path fill="#000000" d="m1963.0371 164.67732l-5.985718 0l0 177.8843l5.985718 0z" fill-rule="evenodd"/><path fill="#000000" d="m1955.4037 148.28854l0 0c0 -2.795517 2.2662354 -5.061722 5.0617676 -5.061722l0 0l0 0c1.3424072 0 2.6298828 0.5332947 3.5791016 1.482544c0.94921875 0.94924927 1.482544 2.2367249 1.482544 3.5791779l0 20.556305c0 2.7955017 -2.2662354 5.0617065 -5.0616455 5.0617065l0 0l0 0c-2.7955322 0 -5.0617676 -2.2662048 -5.0617676 -5.0617065z" fill-rule="evenodd"/><path stroke="#000000" stroke-width="1.0" stroke-linejoin="round" stroke-linecap="butt" d="m1955.4037 148.28854l0 0c0 -2.795517 2.2662354 -5.061722 5.0617676 -5.061722l0 0l0 0c1.3424072 0 2.6298828 0.5332947 3.5791016 1.482544c0.94921875 0.94924927 1.482544 2.2367249 1.482544 3.5791779l0 20.556305c0 2.7955017 -2.2662354 5.0617065 -5.0616455 5.0617065l0 0l0 0c-2.7955322 0 -5.0617676 -2.2662048 -5.0617676 -5.0617065z" fill-rule="evenodd"/><path fill="#fff2cc" d="m1975.0184 132.75792l-7.5856934 30.679733l-15.171387 0l-7.5856934 -30.679733z" fill-rule="evenodd"/><path stroke="#fff2cc" stroke-width="1.0" stroke-linejoin="round" stroke-linecap="butt" d="m1975.0184 132.75792l-7.5856934 30.679733l-15.171387 0l-7.5856934 -30.679733z" fill-rule="evenodd"/><path fill="#000000" d="m1960.5015 164.69037l6.420166 -33.66774l3.703247 0.6325073l-6.420288 33.667725z" fill-rule="evenodd"/><path stroke="#fff2cc" stroke-width="1.0" stroke-linejoin="round" stroke-linecap="butt" d="m1960.5015 164.69037l6.420166 -33.66774l3.703247 0.6325073l-6.420288 33.667725z" fill-rule="evenodd"/><path fill="#000000" d="m1953.7091 165.36264l-7.923584 -33.28241l3.6204834 -1.0905151l7.923584 33.282425z" fill-rule="evenodd"/><path stroke="#fff2cc" stroke-width="1.0" stroke-linejoin="round" stroke-linecap="butt" d="m1953.7091 165.36264l-7.923584 -33.28241l3.6204834 -1.0905151l7.923584 33.282425z" fill-rule="evenodd"/><path fill="#000000" d="m1950.9384 165.74953l0 0c0 -1.2768097 3.9890137 -2.3118744 8.909668 -2.3118744l0 0c4.9206543 0 8.909668 1.0350647 8.909668 2.3118744l0 0c0 1.276825 -3.9890137 2.3118896 -8.909668 2.3118896l0 0c-4.9206543 0 -8.909668 -1.0350647 -8.909668 -2.3118896z" fill-rule="evenodd"/><path stroke="#000000" stroke-width="1.0" stroke-linejoin="round" stroke-linecap="butt" d="m1950.9384 165.74953l0 0c0 -1.2768097 3.9890137 -2.3118744 8.909668 -2.3118744l0 0c4.9206543 0 8.909668 1.0350647 8.909668 2.3118744l0 0c0 1.276825 -3.9890137 2.3118896 -8.909668 2.3118896l0 0c-4.9206543 0 -8.909668 -1.0350647 -8.909668 -2.3118896z" fill-rule="evenodd"/><path fill="#000000" d="m1941.26 132.18741l0 0c0 -0.6131439 1.8875732 -1.2011871 5.2475586 -1.6347504c3.3598633 -0.43356323 7.91687 -0.677124 12.668457 -0.677124l0 0c9.894775 0 17.916016 1.0350647 17.916016 2.3118744l0 0c0 1.276825 -8.02124 2.3118896 -17.916016 2.3118896l0 0c-9.894653 0 -17.916016 -1.0350647 -17.916016 -2.3118896z" fill-rule="evenodd"/><path stroke="#000000" stroke-width="1.0" stroke-linejoin="round" stroke-linecap="butt" d="m1941.26 132.18741l0 0c0 -0.6131439 1.8875732 -1.2011871 5.2475586 -1.6347504c3.3598633 -0.43356323 7.91687 -0.677124 12.668457 -0.677124l0 0c9.894775 0 17.916016 1.0350647 17.916016 2.3118744l0 0c0 1.276825 -8.02124 2.3118896 -17.916016 2.3118896l0 0c-9.894653 0 -17.916016 -1.0350647 -17.916016 -2.3118896z" fill-rule="evenodd"/><path fill="#f9cb9c" d="m1959.9967 157.14903l0 0l0 0c-0.6437988 0 -1.2612305 -0.25575256 -1.7164307 -0.7109833c-0.4552002 -0.4552307 -0.7109375 -1.0726471 -0.7109375 -1.7164307l0 -21.069489c0 -1.5258789E-5 0 -3.0517578E-5 0 -3.0517578E-5l4.8547363 3.0517578E-5l0 0c1.2207031E-4 0 1.2207031E-4 1.5258789E-5 1.2207031E-4 4.5776367E-5l-1.2207031E-4 21.069443l0 0c0 1.340622 -1.086792 2.427414 -2.4273682 2.427414z" fill-rule="evenodd"/><path fill="#000000" fill-opacity="0.0" d="m1958.7506 138.55408l0 11.16684" fill-rule="evenodd"/><path stroke="#ffffff" stroke-width="1.0" stroke-linejoin="round" stroke-linecap="butt" d="m1958.7506 138.55408l0 11.16684" fill-rule="evenodd"/><path fill="#000000" d="m1950.2198 124.96949l19.65039 0c0.6131592 0 1.2011719 0.24357605 1.6347656 0.67713165c0.43359375 0.43356323 0.677124 1.0216064 0.677124 1.6347504l0 2.3118896c0 1.0681152E-4 -1.2207031E-4 1.9836426E-4 -2.4414062E-4 1.9836426E-4l-24.273926 -1.9836426E-4l0 0c-1.2207031E-4 0 -2.4414062E-4 -9.1552734E-5 -2.4414062E-4 -1.9836426E-4l2.4414062E-4 -2.3116913l0 0c0 -1.2768173 1.0350342 -2.311882 2.3118896 -2.311882z" fill-rule="evenodd"/><path stroke="#000000" stroke-width="1.0" stroke-linejoin="round" stroke-linecap="butt" d="m1950.2198 124.96949l19.65039 0c0.6131592 0 1.2011719 0.24357605 1.6347656 0.67713165c0.43359375 0.43356323 0.677124 1.0216064 0.677124 1.6347504l0 2.3118896c0 1.0681152E-4 -1.2207031E-4 1.9836426E-4 -2.4414062E-4 1.9836426E-4l-24.273926 -1.9836426E-4l0 0c-1.2207031E-4 0 -2.4414062E-4 -9.1552734E-5 -2.4414062E-4 -1.9836426E-4l2.4414062E-4 -2.3116913l0 0c0 -1.2768173 1.0350342 -2.311882 2.3118896 -2.311882z" fill-rule="evenodd"/><path fill="#000000" d="m1951.5559 127.36364l6.1480713 -11.16684l5.5233154 0l6.1480713 11.16684z" fill-rule="evenodd"/><path stroke="#000000" stroke-width="1.0" stroke-linejoin="round" stroke-linecap="butt" d="m1951.5559 127.36364l6.1480713 -11.16684l5.5233154 0l6.1480713 11.16684z" fill-rule="evenodd"/><path fill="#000000" d="m1957.0508 116.22066l0 0c0 -3.0836334 1.3399658 -5.58342 2.99292 -5.58342l0 0c0.79382324 0 1.5550537 0.58825684 2.116333 1.6353455c0.5612793 1.0470963 0.8765869 2.4672623 0.8765869 3.9480743l0 0c0 3.083641 -1.3399658 5.58342 -2.99292 5.58342l0 0c-1.6529541 0 -2.99292 -2.4997787 -2.99292 -5.58342z" fill-rule="evenodd"/><path stroke="#000000" stroke-width="1.0" stroke-linejoin="round" stroke-linecap="butt" d="m1957.0508 116.22066l0 0c0 -3.0836334 1.3399658 -5.58342 2.99292 -5.58342l0 0c0.79382324 0 1.5550537 0.58825684 2.116333 1.6353455c0.5612793 1.0470963 0.8765869 2.4672623 0.8765869 3.9480743l0 0c0 3.083641 -1.3399658 5.58342 -2.99292 5.58342l0 0c-1.6529541 0 -2.99292 -2.4997787 -2.99292 -5.58342z" fill-rule="evenodd"/><path fill="#000000" d="m1953.9117 362.37607l13.1073 0l0 0c1.480835 0 2.901001 0.58825684 3.94812 1.6353455c1.0471191 1.0471191 1.6352539 2.4672852 1.6352539 3.9480896l0 5.5834045c0 1.2207031E-4 0 2.1362305E-4 -1.2207031E-4 2.1362305E-4l-24.273926 -2.1362305E-4l0 0c-1.2207031E-4 0 -2.4414062E-4 -9.1552734E-5 -2.4414062E-4 -1.8310547E-4l2.4414062E-4 -5.5832214l0 0c0 -3.0836487 2.4997559 -5.583435 5.583374 -5.583435z" fill-rule="evenodd"/><path stroke="#000000" stroke-width="1.0" stroke-linejoin="round" stroke-linecap="butt" d="m1953.9117 362.37607l13.1073 0l0 0c1.480835 0 2.901001 0.58825684 3.94812 1.6353455c1.0471191 1.0471191 1.6352539 2.4672852 1.6352539 3.9480896l0 5.5834045c0 1.2207031E-4 0 2.1362305E-4 -1.2207031E-4 2.1362305E-4l-24.273926 -2.1362305E-4l0 0c-1.2207031E-4 0 -2.4414062E-4 -9.1552734E-5 -2.4414062E-4 -1.8310547E-4l2.4414062E-4 -5.5832214l0 0c0 -3.0836487 2.4997559 -5.583435 5.583374 -5.583435z" fill-rule="evenodd"/><path fill="#000000" d="m1955.4034 324.66333l0 0c0 -2.7955017 2.2662354 -5.0617065 5.0617676 -5.0617065l0 0l0 0c1.3424072 0 2.6298828 0.53326416 3.5791016 1.482544c0.94921875 0.94924927 1.482544 2.2366943 1.482544 3.5791626l0 39.458496c0 2.7955322 -2.2662354 5.061737 -5.0616455 5.061737l0 0l0 0c-2.7955322 0 -5.0617676 -2.2662048 -5.0617676 -5.061737z" fill-rule="evenodd"/><path fill="#aed076" fill-opacity="0.9608" d="m1263.1947 186.05873l0 0c0 -25.753006 21.589111 -46.62993 48.22058 -46.62993l0 0c12.788818 0 25.053833 4.912781 34.096924 13.657593c9.043091 8.744797 14.123535 20.6053 14.123535 32.972336l0 0c0 25.75299 -21.589111 46.629913 -48.22046 46.629913l0 0c-26.63147 0 -48.22058 -20.876923 -48.22058 -46.629913z" fill-rule="evenodd"/><path fill="#a65500" d="m1312.6791 214.43312l1.0264893 -0.9497223l-26.847168 -23.878433z" fill-rule="evenodd"/><path fill="#a65500" d="m1312.4327 198.34032l-0.78796387 -1.0805969l19.30603 -11.249756z" fill-rule="evenodd"/><path fill="#a65500" d="m1309.6392 300.5112l2.763794 -133.27661l2.763794 133.27661z" fill-rule="evenodd"/><path fill="#aed076" fill-opacity="0.9608" d="m1230.4447 214.67815l0 0c0 -15.519669 12.060181 -28.100845 26.937012 -28.100845l0 0c7.144165 0 13.995728 2.960617 19.047363 8.230545c5.051758 5.269928 7.8897705 12.417496 7.8897705 19.8703l0 0c0 15.519669 -12.060181 28.10083 -26.937134 28.10083l0 0c-14.876831 0 -26.937012 -12.5811615 -26.937012 -28.10083z" fill-rule="evenodd"/><path fill="#a65500" d="m1257.2877 236.62679l-0.5802002 -0.5103302l13.656494 -13.276962z" fill-rule="evenodd"/><path fill="#a65500" d="m1257.1206 230.78679l0.48156738 -0.4547119l-12.593506 -11.432373z" fill-rule="evenodd"/><path fill="#aed076" fill-opacity="0.9608" d="m1249.6237 255.50714l0 0c0 -4.065506 -3.1765137 -7.361267 -7.0948486 -7.361267l0 0c-1.8817139 0 -3.6862793 0.7755585 -5.0168457 2.156067c-1.3305664 1.3805084 -2.078003 3.2528687 -2.078003 5.2052l0 0c0 4.0655212 3.1763916 7.361267 7.0948486 7.361267l0 0c3.918335 0 7.0948486 -3.2957458 7.0948486 -7.361267z" fill-rule="evenodd"/><path fill="#a65500" d="m1257.5477 263.54752l-0.6534424 0.88827515l-14.64917 -10.256409z" fill-rule="evenodd"/><path fill="#a65500" d="m1255.1294 285.77136l2.1032715 -75.969376l2.1033936 75.969376z" fill-rule="evenodd"/><path fill="#aed076" fill-opacity="0.9608" d="m1532.5454 160.5246l0 0c0 -37.39656 30.185913 -67.71246 67.422 -67.71246l0 0c17.88147 0 35.030518 7.133972 47.67456 19.83252c12.644043 12.698547 19.747437 29.921478 19.747437 47.879944l0 0c0 37.39656 -30.185791 67.71246 -67.422 67.71246l0 0c-37.236084 0 -67.422 -30.315903 -67.422 -67.71246z" fill-rule="evenodd"/><path fill="#a65500" d="m1599.7322 213.41257l-1.4522705 -1.2296906l34.181396 -31.992477z" fill-rule="evenodd"/><path fill="#a65500" d="m1599.3138 199.34038l1.2052002 -1.0956726l-31.520752 -27.54773z" fill-rule="evenodd"/><path fill="#aed076" fill-opacity="0.9608" d="m1580.5492 258.90717l0 0c0 -9.796371 -7.9505615 -17.7379 -17.758057 -17.7379l0 0c-4.709717 0 -9.2265625 1.8688049 -12.556885 5.1953125c-3.3302002 3.3264923 -5.201172 7.838196 -5.201172 12.542587l0 0c0 9.796356 7.9505615 17.737885 17.758057 17.737885l0 0c9.807495 0 17.758057 -7.9415283 17.758057 -17.737885z" fill-rule="evenodd"/><path fill="#a65500" d="m1600.3828 278.2814l-1.635498 2.1404114l-36.666016 -24.71408z" fill-rule="evenodd"/><path fill="#a65500" d="m1594.33 331.83252l5.2644043 -183.05763l5.2645264 183.05763z" fill-rule="evenodd"/><path fill="#c5996d" fill-opacity="0.9608" d="m1436.0332 180.60236l7.024414 0l0 183.63797l-7.024414 0z" fill-rule="evenodd"/><path fill="#c5996d" fill-opacity="0.9608" d="m1547.2068 180.60236l7.024414 0l0 183.63797l-7.024414 0z" fill-rule="evenodd"/><path fill="#8d7056" d="m1556.2793 184.00587l0 6.7613373l-121.84338 0l0 -6.7613373z" fill-rule="evenodd"/><path fill="#76a5af" d="m1467.7922 190.77274l3.5266113 0l0 132.16162l-3.5266113 0z" fill-rule="evenodd"/><path fill="#76a5af" d="m1519.3633 190.77274l-3.5266113 0l0 132.16162l3.5266113 0z" fill-rule="evenodd"/><path fill="#8d7056" d="m1529.334 322.94244l0 -10.126984l-71.602905 0l0 10.126984z" fill-rule="evenodd"/><path fill="#76a5af" d="m1681.3901 279.4192l72.18909 0l0 0c7.9439697 0 15.5625 3.1557312 21.179688 8.772949c5.6173096 5.6172485 8.773071 13.23584 8.773071 21.17981l0 29.952759c0 6.1035156E-4 -4.8828125E-4 0.0010986328 -0.0010986328 0.0010986328l-132.09338 -0.0010986328l0 0c-6.1035156E-4 0 -0.0010986328 -4.8828125E-4 -0.0010986328 -0.0010986328l0.0010986328 -29.95166l0 0c0 -16.54245 13.410278 -29.952759 29.952637 -29.952759z" fill-rule="evenodd"/><path fill="#f1f8b5" d="m1681.2517 282.75125l72.851074 0l0 0c6.5738525 0 12.87854 2.6114807 17.5271 7.2599792c4.6484375 4.648468 7.2598877 10.9531555 7.2598877 17.5271l0 31.779846c0 5.79834E-4 -3.6621094E-4 0.0010375977 -9.765625E-4 0.0010375977l-122.424194 -0.0010375977l0 0c-4.8828125E-4 0 -9.765625E-4 -4.5776367E-4 -9.765625E-4 -0.0010070801l9.765625E-4 -31.77884l0 0c0 -13.689545 11.097534 -24.787079 24.78711 -24.787079z" fill-rule="evenodd"/><path fill="#76a5af" d="m1713.3857 279.4192l8.567017 0l0 0c7.9439697 0 15.5625 3.1557312 21.17981 8.772949c5.6171875 5.6172485 8.772949 13.23584 8.772949 21.17981l0 29.952759c0 3.0517578E-4 -2.4414062E-4 5.493164E-4 -6.1035156E-4 5.493164E-4l-68.471924 -5.493164E-4l0 0c-2.4414062E-4 0 -4.8828125E-4 -2.746582E-4 -4.8828125E-4 -5.79834E-4l4.8828125E-4 -29.952179l0 0c0 -16.54245 13.4104 -29.952759 29.952759 -29.952759z" fill-rule="evenodd"/><path fill="#f1f8b5" d="m1715.7109 282.75125l3.9055176 0l0 0c7.5012207 0 14.69519 2.9798584 19.99939 8.284027c5.304199 5.304199 8.284058 12.498199 8.284058 19.99945l0 28.283447c0 2.746582E-4 -2.4414062E-4 5.187988E-4 -4.8828125E-4 5.187988E-4l-60.472046 -5.187988E-4l0 0c-2.4414062E-4 0 -4.8828125E-4 -2.1362305E-4 -4.8828125E-4 -4.8828125E-4l4.8828125E-4 -28.282959l0 0c0 -15.620544 12.662964 -28.283478 28.28357 -28.283478z" fill-rule="evenodd"/><path fill="#c5996d" fill-opacity="0.9608" d="m1715.1621 274.5403l0 0c0 -1.391571 1.1280518 -2.5196838 2.5196533 -2.5196838l0 0l0 0c0.6682129 0 1.3092041 0.2654724 1.7817383 0.7380066c0.47253418 0.47253418 0.73791504 1.1134338 0.73791504 1.7816772l0 62.26773c0 1.391571 -1.1280518 2.5196838 -2.5196533 2.5196838l0 0l0 0c-1.3916016 0 -2.5196533 -1.1281128 -2.5196533 -2.5196838z" fill-rule="evenodd"/><path fill="#8d7056" d="m1713.3715 327.3246l0 0c0 -2.3680725 1.9197998 -4.287781 4.287842 -4.287781l0.7158203 0l0 0c1.137207 0 2.2277832 0.4517517 3.0318604 1.2558594c0.80407715 0.80410767 1.2558594 1.8947449 1.2558594 3.0319214l0 25.440216c0 2.3680725 -1.9196777 4.2877502 -4.2877197 4.2877502l-0.7158203 0c-2.368042 0 -4.287842 -1.9196777 -4.287842 -4.2877502z" fill-rule="evenodd"/><path fill="#a65500" d="m1416.5647 379.7823l-8.707886 0.5096741l4.353882 -34.206696z" fill-rule="evenodd"/><path fill="#aed076" fill-opacity="0.9608" d="m1443.0623 333.43198l0 0c0 -18.576813 -14.451294 -33.63629 -32.277954 -33.63629l0 0c-8.560547 0 -16.77063 3.5437927 -22.823853 9.851837c-6.0533447 6.308014 -9.4539795 14.863556 -9.4539795 23.784454l0 0c0 18.576813 14.451294 33.63629 32.277832 33.63629l0 0c17.82666 0 32.277954 -15.059479 32.277954 -33.63629z" fill-rule="evenodd"/><path fill="#c5996d" fill-opacity="0.9608" d="m1791.691 332.03577l0 0c2.071167 0 3.75 1.6789246 3.75 3.7499695l0 0.6260376l0 0c0 0.99453735 -0.39501953 1.9483643 -1.0982666 2.6516113c-0.7032471 0.7032776 -1.6571045 1.0983582 -2.6517334 1.0983582l-148.43701 0c-2.071045 0 -3.75 -1.6789246 -3.75 -3.7499695l0 -0.6260376c0 -2.071045 1.6789551 -3.7499695 3.75 -3.7499695z" fill-rule="evenodd"/><path fill="#a65500" d="m1793.5231 355.4034l-7.678589 0.43222046l3.8392334 -29.009247z" fill-rule="evenodd"/><path fill="#aed076" fill-opacity="0.9608" d="m1816.8884 316.09567l0 0c0 -15.754211 -12.743042 -28.525513 -28.462402 -28.525513l0 0c-7.548706 0 -14.788208 3.0053406 -20.125977 8.354919c-5.3377686 5.349579 -8.336426 12.605164 -8.336426 20.170593l0 0c0 15.754211 12.743042 28.525513 28.462402 28.525513l0 0c15.71936 0 28.462402 -12.771301 28.462402 -28.525513z" fill-rule="evenodd"/><path fill="#c5996d" fill-opacity="0.9608" d="m1190.3093 328.20685l205.03943 -35.748047l1.0393066 6.173218l-205.0393 35.748047z" fill-rule="evenodd"/><path fill="#8d7056" d="m1277.47 339.5446c-3.0767822 -7.2390137 -0.9230957 -15.594696 5.2490234 -20.36496c6.172119 -4.7702637 14.820679 -4.7633057 21.078613 0.016937256c6.2580566 4.7802734 8.562134 13.139557 5.6157227 20.373749z" fill-rule="evenodd"/><path fill="#a2c4c9" d="m1282.6455 336.6388l0 0c-2.3306885 -4.842987 -1.0424805 -10.462463 3.1306152 -13.656799c4.1730957 -3.194336 10.171631 -3.1525574 14.578003 0.10153198c4.406494 3.2540588 6.102051 8.894318 4.1208496 13.707275z" fill-rule="evenodd"/><path fill="#8d7056" d="m1286.9897 312.07535l0 0c0 -3.6181335 2.9682617 -6.551178 6.629883 -6.551178l0 0c1.7583008 0 3.4447021 0.69021606 4.6879883 1.9187927c1.2434082 1.2285767 1.9418945 2.8948975 1.9418945 4.6323853l0 0c0 3.618103 -2.9682617 6.551178 -6.629883 6.551178l0 0c-3.661621 0 -6.629883 -2.933075 -6.629883 -6.551178z" fill-rule="evenodd"/><path fill="#c5996d" fill-opacity="0.9608" d="m1293.1482 315.7006l0 0c-2.0699463 -0.13046265 -3.635254 -1.8578491 -3.4960938 -3.8582458l0 0c0.06689453 -0.9606323 0.5258789 -1.8570251 1.276001 -2.4920044c0.7501221 -0.63494873 1.7299805 -0.95648193 2.723999 -0.89382935l0 0c2.0700684 0.13046265 3.635254 1.8578491 3.4960938 3.8582764l0 0c-0.13916016 2.0003967 -1.9300537 3.5162659 -4.0 3.3858032z" fill-rule="evenodd"/><path fill="#76a5af" d="m1189.5306 320.77914l35.40161 -5.7637634l1.2282715 7.653534l-35.40161 5.763794z" fill-rule="evenodd"/><path fill="#76a5af" d="m1358.7002 291.85953l35.24402 -6.6771545l1.4488525 7.62204l-35.24402 6.677185z" fill-rule="evenodd"/><path fill="#a2c4c9" d="m1219.1876 299.5356l3.4331055 -0.5984192l3.9055176 23.307068l-3.4331055 0.5984192z" fill-rule="evenodd"/><path fill="#a2c4c9" d="m1355.6741 275.63596l3.4331055 -0.5984192l3.9055176 23.307068l-3.4331055 0.5984192z" fill-rule="evenodd"/><path fill="#aed076" fill-opacity="0.9608" d="m2934.423 165.97404l0 0c0 -38.342697 32.6958 -69.4256 73.02832 -69.4256l0 0c19.368408 0 37.94336 7.3144608 51.638916 20.33429c13.695557 13.019821 21.389404 30.678497 21.389404 49.09131l0 0c0 38.342712 -32.6958 69.42561 -73.02832 69.42561l0 0c-40.33252 0 -73.02832 -31.082901 -73.02832 -69.42561z" fill-rule="evenodd"/><path fill="#a65500" d="m3007.1965 220.20009l-1.572998 -1.260788l37.023926 -32.801895z" fill-rule="evenodd"/><path fill="#a65500" d="m3006.7434 205.77188l1.3056641 -1.1233978l-34.141846 -28.24469z" fill-rule="evenodd"/><path fill="#aed076" fill-opacity="0.9608" d="m2986.4185 266.8457l0 0c0 -10.04422 -8.611572 -18.18666 -19.23462 -18.18666l0 0c-5.1013184 0 -9.993652 1.9160919 -13.601074 5.3267517c-3.6071777 3.4106598 -5.633545 8.036514 -5.633545 12.859909l0 0c0 10.04422 8.611572 18.186676 19.23462 18.186676l0 0c10.623047 0 19.23462 -8.142456 19.23462 -18.186676z" fill-rule="evenodd"/><path fill="#a65500" d="m3007.9014 286.71014l-1.7714844 2.1945496l-39.714844 -25.339355z" fill-rule="evenodd"/><path fill="#a65500" d="m3001.3452 341.6161l5.7021484 -187.68903l5.7023926 187.68903z" fill-rule="evenodd"/><path fill="#aed076" fill-opacity="0.9608" d="m2801.222 227.59268l0 0c0 -22.454788 18.958496 -40.658005 42.345215 -40.658005l0 0c11.230469 0 22.00122 4.2836 29.942383 11.908463c7.9414062 7.6248474 12.402588 17.96637 12.402588 28.749542l0 0c0 22.454803 -18.958496 40.65802 -42.34497 40.65802l0 0c-23.386719 0 -42.345215 -18.203217 -42.345215 -40.65802z" fill-rule="evenodd"/><path fill="#a65500" d="m2844.6687 252.3684l0.90112305 -0.828537l-23.57129 -20.831528z" fill-rule="evenodd"/><path fill="#a65500" d="m2844.4524 238.32904l-0.69189453 -0.94270325l16.95044 -9.814285z" fill-rule="evenodd"/><path fill="#a65500" d="m2841.9995 327.46283l2.4267578 -116.2704l2.4265137 116.2704z" fill-rule="evenodd"/><path fill="#8d7056" d="m2231.928 277.0127l0 71.9151l-5.5268555 0l0 -71.9151z" fill-rule="evenodd"/><path fill="#8d7056" d="m2351.4207 277.0127l0 71.9151l-5.5268555 0l0 -71.9151z" fill-rule="evenodd"/><path fill="#c5996d" fill-opacity="0.9608" d="m2204.786 281.61902l169.11035 0l0 5.982544l-169.11035 0z" fill-rule="evenodd"/><path fill="#c5996d" fill-opacity="0.9608" d="m2204.786 292.9562l169.11035 0l0 5.982544l-169.11035 0z" fill-rule="evenodd"/><path fill="#c5996d" fill-opacity="0.9608" d="m2204.786 304.71545l169.11035 0l0 5.982544l-169.11035 0z" fill-rule="evenodd"/><path fill="#c5996d" fill-opacity="0.9608" d="m2204.7856 316.47614l169.11035 0l0 5.9825134l-169.11035 0z" fill-rule="evenodd"/><path fill="#8d7056" d="m2214.7766 326.44653l0 35.614807l-6.1621094 0l0 -35.614807z" fill-rule="evenodd"/><path fill="#8d7056" d="m2369.7722 326.44653l0 35.614807l-6.1621094 0l0 -35.614807z" fill-rule="evenodd"/><path fill="#c5996d" fill-opacity="0.9608" d="m2198.0017 325.24442l182.67334 0l0 5.982544l-182.67334 0z" fill-rule="evenodd"/><path fill="#aed076" fill-opacity="0.9608" d="m2168.2275 186.84622l0 0c0 -25.753006 21.589111 -46.62993 48.22046 -46.62993l0 0c12.7890625 0 25.053955 4.912781 34.097168 13.657593c9.042969 8.744797 14.123291 20.6053 14.123291 32.972336l0 0c0 25.75299 -21.588867 46.629913 -48.22046 46.629913l0 0c-26.631348 0 -48.22046 -20.876923 -48.22046 -46.629913z" fill-rule="evenodd"/><path fill="#a65500" d="m2217.712 215.22061l1.0266113 -0.9497223l-26.847168 -23.878448z" fill-rule="evenodd"/><path fill="#a65500" d="m2217.4656 199.1278l-0.78808594 -1.0805969l19.306152 -11.249756z" fill-rule="evenodd"/><path fill="#a65500" d="m2214.672 301.29868l2.7636719 -133.2766l2.763916 133.2766z" fill-rule="evenodd"/><path fill="#a65500" d="m2164.6313 342.4131l-5.6120605 0.3320923l2.8061523 -43.428772z" fill-rule="evenodd"/><path fill="#aed076" fill-opacity="0.9608" d="m2186.7324 307.65967l0 0c0 -13.794067 -10.709961 -24.97638 -23.921143 -24.97638l0 0c-6.3444824 0 -12.428955 2.6314392 -16.91504 7.315399c-4.486084 4.6839905 -7.0063477 11.036835 -7.0063477 17.66098l0 0c0 13.794067 10.709961 24.97638 23.921387 24.97638l0 0c13.211182 0 23.921143 -11.182312 23.921143 -24.97638z" fill-rule="evenodd"/><path fill="#aed076" fill-opacity="0.9608" d="m2504.373 139.57338l0 0c0 -37.407135 30.309326 -67.73162 67.697754 -67.73162l0 0c17.95459 0 35.17383 7.135994 47.86963 19.838135c12.695801 12.702141 19.828125 29.929947 19.828125 47.893486l0 0c0 37.40715 -30.309326 67.73163 -67.697754 67.73163l0 0c-37.388428 0 -67.697754 -30.324478 -67.697754 -67.73163z" fill-rule="evenodd"/><path fill="#a65500" d="m2568.9438 156.15483l1.001709 -1.7784729l-27.028809 -15.993652z" fill-rule="evenodd"/><path fill="#a65500" d="m2569.2266 174.78847l1.7143555 2.427887l25.82251 -22.38005z" fill-rule="evenodd"/><path fill="#aed076" fill-opacity="0.9608" d="m2582.8782 244.99924l0 0c0 -13.199463 10.152832 -23.89975 22.676758 -23.89975l0 0c6.0144043 0 11.782227 2.5180054 16.034912 7.0000763c4.2526855 4.482071 6.6418457 10.561066 6.6418457 16.899673l0 0c0 13.199463 -10.152588 23.89975 -22.676758 23.89975l0 0c-12.523926 0 -22.676758 -10.700287 -22.676758 -23.89975z" fill-rule="evenodd"/><path fill="#a65500" d="m2571.2012 272.47693l-1.5864258 -2.7619324l37.50659 -22.282501z" fill-rule="evenodd"/><path fill="#a65500" d="m2564.6514 366.3224l5.225586 -259.53275l5.225586 259.53275z" fill-rule="evenodd"/><path fill="#aed076" fill-opacity="0.9608" d="m2445.3027 220.37709l0 0c0 -20.086563 16.232422 -36.36995 36.256348 -36.36995l0 0c9.615723 0 18.837646 3.831833 25.636963 10.652512c6.7993164 6.820694 10.619385 16.071533 10.619385 25.717438l0 0c0 20.086563 -16.232666 36.36995 -36.256348 36.36995l0 0c-20.023926 0 -36.256348 -16.283386 -36.256348 -36.36995z" fill-rule="evenodd"/><path fill="#a65500" d="m2481.4326 248.78444l-0.78100586 -0.66049194l18.381104 -17.183899z" fill-rule="evenodd"/><path fill="#a65500" d="m2481.2075 241.22595l0.64819336 -0.58851624l-16.95044 -14.796524z" fill-rule="evenodd"/><path fill="#aed076" fill-opacity="0.9608" d="m2471.117 273.22064l0 0c0 -5.261841 -4.2753906 -9.527435 -9.549561 -9.527435l0 0c-2.5327148 0 -4.961426 1.0037842 -6.7524414 2.7905273c-1.7907715 1.7867432 -2.796875 4.210083 -2.796875 6.736908l0 0c0 5.2618713 4.2753906 9.527435 9.549316 9.527435l0 0c5.27417 0 9.549561 -4.265564 9.549561 -9.527435z" fill-rule="evenodd"/><path fill="#a65500" d="m2481.7825 283.627l-0.8796387 1.1496582l-19.717041 -13.274506z" fill-rule="evenodd"/><path fill="#a65500" d="m2478.5276 312.39056l2.8308105 -98.324524l2.8310547 98.324524z" fill-rule="evenodd"/><path fill="#38761d" d="m2829.295 334.97504l4.894043 0l0 29.370728l-4.894043 0z" fill-rule="evenodd"/><path fill="#38761d" d="m2783.4988 334.97504l4.893799 0l0 29.370728l-4.893799 0z" fill-rule="evenodd"/><path fill="#38761d" d="m2797.1545 286.20016l23.27124 0l0 0c3.6523438 0 7.1550293 1.4508667 9.737549 4.0334167c2.5825195 2.58255 4.0334473 6.085205 4.0334473 9.737488l0 55.92578c0 2.4414062E-4 -2.4414062E-4 4.272461E-4 -4.8828125E-4 4.272461E-4l-50.812744 -4.272461E-4l0 0c-2.4414062E-4 0 -4.8828125E-4 -1.8310547E-4 -4.8828125E-4 -4.272461E-4l4.8828125E-4 -55.925354l0 0c0 -7.6054688 6.1655273 -13.770905 13.770996 -13.770905z" fill-rule="evenodd"/><path fill="#b6d7a8" d="m2794.2131 292.56415l29.146729 0c1.1728516 0 2.2976074 0.46588135 3.1269531 1.2951965c0.82910156 0.8293152 1.295166 1.954071 1.295166 3.126892l0 11.894989c0 1.8310547E-4 -2.4414062E-4 3.0517578E-4 -4.8828125E-4 3.0517578E-4l-37.99048 -3.0517578E-4l0 0c-2.4414062E-4 0 -2.4414062E-4 -1.5258789E-4 -2.4414062E-4 -3.0517578E-4l2.4414062E-4 -11.894684l0 0c0 -2.4422607 1.9799805 -4.4220886 4.422119 -4.4220886z" fill-rule="evenodd"/><path stroke="#38761d" stroke-width="1.0" stroke-linejoin="round" stroke-linecap="butt" d="m2794.2131 292.56415l29.146729 0c1.1728516 0 2.2976074 0.46588135 3.1269531 1.2951965c0.82910156 0.8293152 1.295166 1.954071 1.295166 3.126892l0 11.894989c0 1.8310547E-4 -2.4414062E-4 3.0517578E-4 -4.8828125E-4 3.0517578E-4l-37.99048 -3.0517578E-4l0 0c-2.4414062E-4 0 -2.4414062E-4 -1.5258789E-4 -2.4414062E-4 -3.0517578E-4l2.4414062E-4 -11.894684l0 0c0 -2.4422607 1.9799805 -4.4220886 4.422119 -4.4220886z" fill-rule="evenodd"/><path fill="#93c47d" d="m2789.791 328.64172l37.990967 0l0 4.933655l-37.990967 0z" fill-rule="evenodd"/><path fill="#93c47d" d="m2789.8499 341.17032l37.990967 0l0 4.933655l-37.990967 0z" fill-rule="evenodd"/><path fill="#93c47d" d="m2789.791 316.1116l37.990967 0l0 4.9336853l-37.990967 0z" fill-rule="evenodd"/><path fill="#6d9eeb" d="m2892.3289 336.77713l4.892578 0l0 29.38501l-4.892578 0z" fill-rule="evenodd"/><path fill="#6d9eeb" d="m2860.1882 285.66675l23.271484 0l0 0c3.6523438 0 7.1550293 1.4508362 9.737549 4.033386c2.5825195 2.58255 4.033203 6.085205 4.033203 9.737488l0 55.92578c0 2.4414062E-4 0 4.272461E-4 -2.4414062E-4 4.272461E-4l-50.812744 -4.272461E-4l0 0c-2.4414062E-4 0 -4.8828125E-4 -1.8310547E-4 -4.8828125E-4 -4.272461E-4l4.8828125E-4 -55.925354l0 0c0 -7.605438 6.165283 -13.770874 13.770752 -13.770874z" fill-rule="evenodd"/><path fill="#c9daf8" d="m2857.247 292.0307l29.146484 0c1.1728516 0 2.2976074 0.46588135 3.1269531 1.2951965c0.8293457 0.8293152 1.295166 1.954071 1.295166 3.126892l0 11.894989c0 1.8310547E-4 0 3.0517578E-4 -2.4414062E-4 3.0517578E-4l-37.99048 -3.0517578E-4l0 0c-2.4414062E-4 0 -4.8828125E-4 -1.5258789E-4 -4.8828125E-4 -3.0517578E-4l4.8828125E-4 -11.894684l0 0c0 -2.4422607 1.9797363 -4.4220886 4.422119 -4.4220886z" fill-rule="evenodd"/><path stroke="#6d9eeb" stroke-width="1.0" stroke-linejoin="round" stroke-linecap="butt" d="m2857.247 292.0307l29.146484 0c1.1728516 0 2.2976074 0.46588135 3.1269531 1.2951965c0.8293457 0.8293152 1.295166 1.954071 1.295166 3.126892l0 11.894989c0 1.8310547E-4 0 3.0517578E-4 -2.4414062E-4 3.0517578E-4l-37.99048 -3.0517578E-4l0 0c-2.4414062E-4 0 -4.8828125E-4 -1.5258789E-4 -4.8828125E-4 -3.0517578E-4l4.8828125E-4 -11.894684l0 0c0 -2.4422607 1.9797363 -4.4220886 4.422119 -4.4220886z" fill-rule="evenodd"/><path fill="#6d9eeb" d="m2846.5325 336.77713l4.894043 0l0 29.370728l-4.894043 0z" fill-rule="evenodd"/><path fill="#a4c2f4" d="m2852.825 328.10828l37.990723 0l0 4.9336853l-37.990723 0z" fill-rule="evenodd"/><path fill="#a4c2f4" d="m2852.8838 340.63687l37.990723 0l0 4.933655l-37.990723 0z" fill-rule="evenodd"/><path fill="#a4c2f4" d="m2852.825 315.5782l37.990723 0l0 4.933655l-37.990723 0z" fill-rule="evenodd"/><path fill="#a65500" d="m2917.5059 375.8387l-8.707764 0.5096741l4.35376 -34.206696z" fill-rule="evenodd"/><path fill="#aed076" fill-opacity="0.9608" d="m2944.0034 329.4884l0 0c0 -18.576813 -14.451172 -33.63629 -32.277832 -33.63629l0 0c-8.560547 0 -16.770752 3.5437927 -22.823975 9.851837c-6.0532227 6.308014 -9.453857 14.863556 -9.453857 23.784454l0 0c0 18.576813 14.451172 33.63629 32.277832 33.63629l0 0c17.82666 0 32.277832 -15.059479 32.277832 -33.63629z" fill-rule="evenodd"/><path fill="#000000" d="m2934.1372 341.32205l0 0l0 0c2.363037 0 4.6291504 0.9386902 6.300049 2.6095886c1.6708984 1.6708984 2.6096191 3.9371338 2.6096191 6.3001404l0 23.31128c0 6.1035156E-5 0 1.2207031E-4 0 1.2207031E-4l-17.819336 -1.2207031E-4l0 0c-2.4414062E-4 0 -2.4414062E-4 -9.1552734E-5 -2.4414062E-4 -1.5258789E-4l2.4414062E-4 -23.311127l0 0c0 -4.9207153 3.9890137 -8.909729 8.909668 -8.909729z" fill-rule="evenodd"/><path stroke="#000000" stroke-width="1.0" stroke-linejoin="round" stroke-linecap="butt" d="m2934.1372 341.32205l0 0l0 0c2.363037 0 4.6291504 0.9386902 6.300049 2.6095886c1.6708984 1.6708984 2.6096191 3.9371338 2.6096191 6.3001404l0 23.31128c0 6.1035156E-5 0 1.2207031E-4 0 1.2207031E-4l-17.819336 -1.2207031E-4l0 0c-2.4414062E-4 0 -2.4414062E-4 -9.1552734E-5 -2.4414062E-4 -1.5258789E-4l2.4414062E-4 -23.311127l0 0c0 -4.9207153 3.9890137 -8.909729 8.909668 -8.909729z" fill-rule="evenodd"/><path fill="#000000" d="m2937.1287 164.67741l-5.98584 0l0 177.8843l5.98584 0z" fill-rule="evenodd"/><path fill="#000000" d="m2929.495 148.28862l0 0c0 -2.7955017 2.2663574 -5.0617065 5.0617676 -5.0617065l0 0l0 0c1.3425293 0 2.6298828 0.5332947 3.5791016 1.482544c0.9494629 0.94924927 1.482666 2.2367249 1.482666 3.5791626l0 20.55632c0 2.7955017 -2.2663574 5.0617065 -5.0617676 5.0617065l0 0l0 0c-2.7954102 0 -5.0617676 -2.2662048 -5.0617676 -5.0617065z" fill-rule="evenodd"/><path stroke="#000000" stroke-width="1.0" stroke-linejoin="round" stroke-linecap="butt" d="m2929.495 148.28862l0 0c0 -2.7955017 2.2663574 -5.0617065 5.0617676 -5.0617065l0 0l0 0c1.3425293 0 2.6298828 0.5332947 3.5791016 1.482544c0.9494629 0.94924927 1.482666 2.2367249 1.482666 3.5791626l0 20.55632c0 2.7955017 -2.2663574 5.0617065 -5.0617676 5.0617065l0 0l0 0c-2.7954102 0 -5.0617676 -2.2662048 -5.0617676 -5.0617065z" fill-rule="evenodd"/><path fill="#fff2cc" d="m2949.1099 132.758l-7.5856934 30.679733l-15.171387 0l-7.585449 -30.679733z" fill-rule="evenodd"/><path stroke="#fff2cc" stroke-width="1.0" stroke-linejoin="round" stroke-linecap="butt" d="m2949.1099 132.758l-7.5856934 30.679733l-15.171387 0l-7.585449 -30.679733z" fill-rule="evenodd"/><path fill="#000000" d="m2934.593 164.69046l6.420166 -33.66774l3.703125 0.6325073l-6.420166 33.667725z" fill-rule="evenodd"/><path stroke="#fff2cc" stroke-width="1.0" stroke-linejoin="round" stroke-linecap="butt" d="m2934.593 164.69046l6.420166 -33.66774l3.703125 0.6325073l-6.420166 33.667725z" fill-rule="evenodd"/><path fill="#000000" d="m2927.8005 165.36273l-7.923584 -33.282425l3.6206055 -1.0904999l7.923584 33.28241z" fill-rule="evenodd"/><path stroke="#fff2cc" stroke-width="1.0" stroke-linejoin="round" stroke-linecap="butt" d="m2927.8005 165.36273l-7.923584 -33.282425l3.6206055 -1.0904999l7.923584 33.28241z" fill-rule="evenodd"/><path fill="#000000" d="m2925.0298 165.74962l0 0c0 -1.276825 3.9890137 -2.3118896 8.909668 -2.3118896l0 0c4.9208984 0 8.909912 1.0350647 8.909912 2.3118896l0 0c0 1.276825 -3.9890137 2.3118896 -8.909912 2.3118896l0 0c-4.9206543 0 -8.909668 -1.0350647 -8.909668 -2.3118896z" fill-rule="evenodd"/><path stroke="#000000" stroke-width="1.0" stroke-linejoin="round" stroke-linecap="butt" d="m2925.0298 165.74962l0 0c0 -1.276825 3.9890137 -2.3118896 8.909668 -2.3118896l0 0c4.9208984 0 8.909912 1.0350647 8.909912 2.3118896l0 0c0 1.276825 -3.9890137 2.3118896 -8.909912 2.3118896l0 0c-4.9206543 0 -8.909668 -1.0350647 -8.909668 -2.3118896z" fill-rule="evenodd"/><path fill="#000000" d="m2915.3516 132.1875l0 0c0 -0.6131439 1.8876953 -1.2011871 5.2475586 -1.6347504c3.3598633 -0.43356323 7.916748 -0.6771393 12.668457 -0.6771393l0 0c9.894775 0 17.916016 1.0350647 17.916016 2.3118896l0 0c0 1.276825 -8.02124 2.3118896 -17.916016 2.3118896l0 0c-9.894775 0 -17.916016 -1.0350647 -17.916016 -2.3118896z" fill-rule="evenodd"/><path stroke="#000000" stroke-width="1.0" stroke-linejoin="round" stroke-linecap="butt" d="m2915.3516 132.1875l0 0c0 -0.6131439 1.8876953 -1.2011871 5.2475586 -1.6347504c3.3598633 -0.43356323 7.916748 -0.6771393 12.668457 -0.6771393l0 0c9.894775 0 17.916016 1.0350647 17.916016 2.3118896l0 0c0 1.276825 -8.02124 2.3118896 -17.916016 2.3118896l0 0c-9.894775 0 -17.916016 -1.0350647 -17.916016 -2.3118896z" fill-rule="evenodd"/><path fill="#f9cb9c" d="m2934.0881 157.14911l0 0l0 0c-0.6437988 0 -1.2612305 -0.2557373 -1.7163086 -0.710968c-0.45532227 -0.4552307 -0.7109375 -1.0726471 -0.7109375 -1.7164459l0 -21.069473c0 -1.5258789E-5 0 -4.5776367E-5 0 -4.5776367E-5l4.8547363 4.5776367E-5l0 0c0 0 0 1.5258789E-5 0 4.5776367E-5l0 21.069427l0 0c0 1.3406372 -1.0866699 2.427414 -2.4274902 2.427414z" fill-rule="evenodd"/><path fill="#000000" fill-opacity="0.0" d="m2932.842 138.55417l0 11.16684" fill-rule="evenodd"/><path stroke="#ffffff" stroke-width="1.0" stroke-linejoin="round" stroke-linecap="butt" d="m2932.842 138.55417l0 11.16684" fill-rule="evenodd"/><path fill="#000000" d="m2924.3113 124.96958l19.65039 0c0.61328125 0 1.2011719 0.24356842 1.6347656 0.67713165c0.43359375 0.43356323 0.6772461 1.0215988 0.6772461 1.6347504l0 2.3118896c0 1.0681152E-4 -2.4414062E-4 1.9836426E-4 -2.4414062E-4 1.9836426E-4l-24.273926 -1.9836426E-4l0 0c-2.4414062E-4 0 -2.4414062E-4 -9.1552734E-5 -2.4414062E-4 -2.1362305E-4l2.4414062E-4 -2.311676l0 0c0 -1.2768173 1.0349121 -2.311882 2.3117676 -2.311882z" fill-rule="evenodd"/><path stroke="#000000" stroke-width="1.0" stroke-linejoin="round" stroke-linecap="butt" d="m2924.3113 124.96958l19.65039 0c0.61328125 0 1.2011719 0.24356842 1.6347656 0.67713165c0.43359375 0.43356323 0.6772461 1.0215988 0.6772461 1.6347504l0 2.3118896c0 1.0681152E-4 -2.4414062E-4 1.9836426E-4 -2.4414062E-4 1.9836426E-4l-24.273926 -1.9836426E-4l0 0c-2.4414062E-4 0 -2.4414062E-4 -9.1552734E-5 -2.4414062E-4 -2.1362305E-4l2.4414062E-4 -2.311676l0 0c0 -1.2768173 1.0349121 -2.311882 2.3117676 -2.311882z" fill-rule="evenodd"/><path fill="#000000" d="m2925.6475 127.36372l6.147949 -11.16684l5.5234375 0l6.147949 11.16684z" fill-rule="evenodd"/><path stroke="#000000" stroke-width="1.0" stroke-linejoin="round" stroke-linecap="butt" d="m2925.6475 127.36372l6.147949 -11.16684l5.5234375 0l6.147949 11.16684z" fill-rule="evenodd"/><path fill="#000000" d="m2931.1423 116.22075l0 0c0 -3.083641 1.3398438 -5.58342 2.99292 -5.58342l0 0c0.7937012 0 1.5549316 0.5882492 2.116211 1.6353455c0.5612793 1.0470963 0.876709 2.4672546 0.876709 3.9480743l0 0c0 3.0836334 -1.3400879 5.58342 -2.99292 5.58342l0 0c-1.6530762 0 -2.99292 -2.4997864 -2.99292 -5.58342z" fill-rule="evenodd"/><path stroke="#000000" stroke-width="1.0" stroke-linejoin="round" stroke-linecap="butt" d="m2931.1423 116.22075l0 0c0 -3.083641 1.3398438 -5.58342 2.99292 -5.58342l0 0c0.7937012 0 1.5549316 0.5882492 2.116211 1.6353455c0.5612793 1.0470963 0.876709 2.4672546 0.876709 3.9480743l0 0c0 3.0836334 -1.3400879 5.58342 -2.99292 5.58342l0 0c-1.6530762 0 -2.99292 -2.4997864 -2.99292 -5.58342z" fill-rule="evenodd"/><path fill="#000000" d="m2928.0032 362.37616l13.107422 0l0 0c1.4807129 0 2.900879 0.58825684 3.947998 1.6353455c1.0471191 1.0470886 1.635498 2.4672546 1.635498 3.9480896l0 5.5834045c0 1.2207031E-4 -2.4414062E-4 2.1362305E-4 -2.4414062E-4 2.1362305E-4l-24.273926 -2.1362305E-4l0 0c-2.4414062E-4 0 -2.4414062E-4 -9.1552734E-5 -2.4414062E-4 -1.8310547E-4l2.4414062E-4 -5.5832214l0 0c0 -3.0836487 2.4997559 -5.583435 5.583252 -5.583435z" fill-rule="evenodd"/><path stroke="#000000" stroke-width="1.0" stroke-linejoin="round" stroke-linecap="butt" d="m2928.0032 362.37616l13.107422 0l0 0c1.4807129 0 2.900879 0.58825684 3.947998 1.6353455c1.0471191 1.0470886 1.635498 2.4672546 1.635498 3.9480896l0 5.5834045c0 1.2207031E-4 -2.4414062E-4 2.1362305E-4 -2.4414062E-4 2.1362305E-4l-24.273926 -2.1362305E-4l0 0c-2.4414062E-4 0 -2.4414062E-4 -9.1552734E-5 -2.4414062E-4 -1.8310547E-4l2.4414062E-4 -5.5832214l0 0c0 -3.0836487 2.4997559 -5.583435 5.583252 -5.583435z" fill-rule="evenodd"/><path fill="#000000" d="m2929.4949 324.66342l0 0c0 -2.7955017 2.2663574 -5.0617065 5.0617676 -5.0617065l0 0l0 0c1.3425293 0 2.6298828 0.53326416 3.5791016 1.4825134c0.9494629 0.9492798 1.482666 2.2367249 1.482666 3.579193l0 39.458496c0 2.7955017 -2.2661133 5.061737 -5.0617676 5.061737l0 0l0 0c-2.7954102 0 -5.0617676 -2.2662354 -5.0617676 -5.061737z" fill-rule="evenodd"/></g></svg>