<svg version="1.1" viewBox="0.0 0.0 961.5354330708661 654.7191601049868" fill="none" stroke="none" stroke-linecap="square" stroke-miterlimit="10" xmlns:xlink="http://www.w3.org/1999/xlink" xmlns="http://www.w3.org/2000/svg"><clipPath id="p.0"><path d="m0 0l961.53546 0l0 654.7192l-961.53546 0l0 -654.7192z" clip-rule="nonzero"/></clipPath><g clip-path="url(#p.0)"><path fill="#000000" fill-opacity="0.0" d="m0 0l961.53546 0l0 654.7192l-961.53546 0z" fill-rule="evenodd"/><path fill="#cfe2f3" d="m962.3307 657.01575l-964.6614 0l0 -659.43304l964.6614 0z" fill-rule="evenodd"/><path fill="#000000" d="m515.12854 313.6993l0 0c0 -6.515991 4.3375854 -11.798248 9.688293 -11.798248l0 0c2.569519 0 5.0337524 1.243042 6.850647 3.4556274c1.8168945 2.2125854 2.8376465 5.2135315 2.8376465 8.342621l0 0c0 6.515991 -4.3375854 11.798248 -9.688293 11.798248l0 0c-5.350708 0 -9.688293 -5.282257 -9.688293 -11.798248z" fill-rule="evenodd"/><path stroke="#000000" stroke-width="1.0" stroke-linejoin="round" stroke-linecap="butt" d="m515.12854 313.6993l0 0c0 -6.515991 4.3375854 -11.798248 9.688293 -11.798248l0 0c2.569519 0 5.0337524 1.243042 6.850647 3.4556274c1.8168945 2.2125854 2.8376465 5.2135315 2.8376465 8.342621l0 0c0 6.515991 -4.3375854 11.798248 -9.688293 11.798248l0 0c-5.350708 0 -9.688293 -5.282257 -9.688293 -11.798248z" fill-rule="evenodd"/><path fill="#ffffff" d="m522.3948 314.94766l0 0c0 -2.749939 2.0222168 -4.9792175 4.5168457 -4.9792175l0 0c1.197937 0 2.3468018 0.52459717 3.1938477 1.458374c0.84710693 0.9338074 1.322998 2.2002869 1.322998 3.5208435l0 0c0 2.7499695 -2.0222778 4.979248 -4.5168457 4.979248l0 0c-2.494629 0 -4.5168457 -2.2292786 -4.5168457 -4.979248z" fill-rule="evenodd"/><g mask="url(#mask-p.1)"><use xlink:href="#p.1" transform="matrix(1.0 0.0 0.0 -1.0 0.0 831.6773796278218)"/></g><defs><mask id="mask-p.1" maskUnits="userSpaceOnUse" x="400.56423179127256" y="417.8386898139109" width="128.91303482501377" height="178.00921147656226"><linearGradient gradientUnits="userSpaceOnUse" id="gradient-p.1" x1="400.5642317929619" y1="417.83822315000407" x2="400.5640384749737" y2="471.2411287134857"><stop offset="0%" stop-color="#ffffff" stop-opacity="0.23999999463558197"/><stop offset="100%" stop-color="#ffffff" stop-opacity="0.0"/></linearGradient><rect fill="url(#gradient-p.1)" x="400.56423179127256" y="417.8386898139109" width="128.91303482501377" height="178.00921147656226"/></mask></defs><g id="p.1"><defs><linearGradient id="p.2" gradientUnits="userSpaceOnUse" gradientTransform="matrix(-10.163209924296371 9.664643010610785 -9.664643010610785 -10.163209924296371 0.0 0.0)" spreadMethod="pad" x1="-13.864213310796186" y1="-43.98527806081746" x2="-13.864249862457598" y2="-33.822068136586815"><stop offset="0.0" stop-color="#f7b9b0"/><stop offset="1.0" stop-color="#741b47"/></linearGradient></defs><path fill="url(#p.2)" d="m512.6603 256.9875l0 0c23.978699 26.856293 22.088379 68.91028 -4.222229 93.930176q-28.287659 26.899963 -48.43152 62.92102q-16.844788 -37.371765 -42.625336 -66.246124l0 0c-23.978699 -26.856323 -22.088318 -68.91031 4.2222595 -93.93019l0 0c26.310608 -25.019897 67.078125 -23.531204 91.05682 3.325119z" fill-rule="evenodd"/></g><path fill="#134f5c" d="m392.86142 188.67105l0 0c10.954468 -13.554001 34.972412 -11.513641 53.64563 4.557266c18.673187 16.070908 24.930481 40.08664 13.976013 53.64064l0 0c4.593689 -14.664627 -3.0883179 -34.12892 -18.809967 -47.65959c-15.721619 -13.530655 -35.656433 -17.834534 -48.811676 -10.538315z" fill-rule="evenodd"/><path fill="#134f5c" d="m422.05005 210.95491l0 0c7.537964 -9.321869 22.990662 -8.838226 34.514526 1.0802307c11.523895 9.918472 14.755096 25.515854 7.2171326 34.837723c2.217926 -9.84021 -2.3749084 -21.512619 -11.5833435 -29.438202c-9.208435 -7.925598 -21.162415 -10.494858 -30.148315 -6.4797516z" fill-rule="evenodd"/><path fill="#38761d" d="m538.2218 169.76656l0 0c-8.586426 -8.0168 -30.71402 2.7441711 -49.42337 24.035324c-18.709381 21.291153 -26.915619 45.049957 -18.329224 53.066772l0 0c-0.88708496 -12.20993 8.35257 -31.409973 23.302734 -48.423187c14.950134 -17.013214 32.574738 -28.384552 44.44986 -28.67891z" fill-rule="evenodd"/><path fill="#38761d" d="m524.684 203.45502l0 0c-6.218384 -10.086258 -25.913391 -8.680679 -43.99005 3.13945c-18.07669 11.820129 -27.689728 29.578766 -21.471344 39.66504l0 0c0.6869507 -10.966705 10.628601 -24.37761 25.073212 -33.82277c14.44458 -9.44516 30.45874 -13.006454 40.388184 -8.98172z" fill-rule="evenodd"/><path fill="#6aa84f" d="m507.8717 221.68729l0 0c-3.6695557 -6.8981934 -15.656555 -7.4120483 -26.773712 -1.1477509c-11.117157 6.264282 -17.154602 16.934586 -13.485046 23.832779l0 0c2.5915527 -6.6268005 8.816986 -13.186142 16.76596 -17.665222c7.948944 -4.47908 16.67215 -6.3430023 23.492798 -5.019806z" fill-rule="evenodd"/><path fill="#274e13" d="m499.20236 167.46652l0 0c-7.501831 -3.2626648 -20.221527 10.294373 -28.410278 30.280457c-8.188721 19.9861 -8.745575 38.832916 -1.2437439 42.09558l0 0c-3.1704712 -8.293594 -0.9543762 -24.235382 5.58902 -40.20575c6.5434265 -15.970367 16.085297 -28.726059 24.065002 -32.170288z" fill-rule="evenodd"/><path fill="#38761d" d="m460.8407 246.26309l0 0c10.972534 -3.8033295 13.155975 -27.584793 4.8768616 -53.1174c-8.279114 -25.532608 -23.88565 -43.14766 -34.858185 -39.344345l0 0c10.832428 2.1960602 23.381958 19.03241 30.46231 40.868057c7.080353 21.835648 6.882202 43.090622 -0.48098755 51.59369z" fill-rule="evenodd"/><path fill="#274e13" d="m459.31277 241.25587l0 0c8.044128 -4.605011 2.0799255 -31.605698 -13.321411 -60.30774c-15.401306 -28.702042 -34.407593 -48.23654 -42.45172 -43.631546l0 0c10.500671 5.0060883 25.485535 23.363846 37.792328 46.298904c12.306824 22.935059 19.43628 45.789764 17.980804 57.64038z" fill-rule="evenodd"/><path fill="#000000" d="m487.51105 319.2693l0 0c0 -6.515991 4.337616 -11.798248 9.688293 -11.798248l0 0c2.5694885 0 5.0337524 1.243042 6.8506775 3.4556274c1.8168945 2.212616 2.837616 5.2135315 2.837616 8.342621l0 0c0 6.515991 -4.3375854 11.798248 -9.688293 11.798248l0 0c-5.3506775 0 -9.688293 -5.282257 -9.688293 -11.798248z" fill-rule="evenodd"/><path stroke="#000000" stroke-width="1.0" stroke-linejoin="round" stroke-linecap="butt" d="m487.51105 319.2693l0 0c0 -6.515991 4.337616 -11.798248 9.688293 -11.798248l0 0c2.5694885 0 5.0337524 1.243042 6.8506775 3.4556274c1.8168945 2.212616 2.837616 5.2135315 2.837616 8.342621l0 0c0 6.515991 -4.3375854 11.798248 -9.688293 11.798248l0 0c-5.3506775 0 -9.688293 -5.282257 -9.688293 -11.798248z" fill-rule="evenodd"/><path fill="#ffffff" d="m495.10394 320.51797l0 0c0 -2.749939 2.0222473 -4.9792175 4.5168457 -4.9792175l0 0c1.197937 0 2.3468018 0.52459717 3.1938782 1.458374c0.8470764 0.9338074 1.3229675 2.2002869 1.3229675 3.5208435l0 0c0 2.7499695 -2.0222778 4.979248 -4.5168457 4.979248l0 0c-2.4945984 0 -4.5168457 -2.2292786 -4.5168457 -4.979248z" fill-rule="evenodd"/><g mask="url(#mask-p.3)"><use xlink:href="#p.3" transform="matrix(1.0 0.0 0.0 -1.0 0.0 871.1333078770252)"/></g><defs><mask id="mask-p.3" maskUnits="userSpaceOnUse" x="516.4588170226311" y="439.5666539385126" width="77.53050360290194" height="61.23363124567754"><linearGradient gradientUnits="userSpaceOnUse" id="gradient-p.3" x1="516.4588170236472" y1="439.566373278859" x2="516.4587172738808" y2="467.1216329059318"><stop offset="0%" stop-color="#ffffff" stop-opacity="0.2199999988079071"/><stop offset="100%" stop-color="#ffffff" stop-opacity="0.0"/></linearGradient><rect fill="url(#gradient-p.3)" x="516.4588170226311" y="439.5666539385126" width="77.53050360290194" height="61.23363124567754"/></mask></defs><g id="p.3"><path fill="#fce5cd" d="m585.76 414.63602l0 0c0.19415283 4.9627075 -2.246704 9.634766 -6.286865 12.0336c-4.040161 2.3988647 -8.971069 2.1037903 -12.700378 -0.75997925l0 0c-1.6426392 2.725006 -4.369507 4.4608154 -7.355774 4.682373c-2.986206 0.22155762 -5.8811035 -1.097168 -7.80896 -3.5572815l0 0c-1.4127808 2.4776611 -3.899475 4.00177 -6.5776367 4.031494c-2.6781616 0.029693604 -5.168762 -1.439209 -6.5880127 -3.8854675l0 0c-2.3863525 2.5450745 -5.9070435 3.3865967 -9.038818 2.1604614c-3.131775 -1.2261658 -5.3120117 -4.2997437 -5.597412 -7.890808l0 0c-2.567688 -1.0195618 -4.592102 -3.1996765 -5.55011 -5.977051c-0.9580078 -2.7773743 -0.75567627 -5.879608 0.5546875 -8.505127l0 0c-2.2797241 -3.895752 -2.4672852 -8.826172 -0.49273682 -12.951324c1.9745483 -4.125183 5.814575 -6.8253174 10.087097 -7.092804c0.37457275 -4.0068054 2.72052 -7.5003357 6.133667 -9.134033c3.413086 -1.6336975 7.3604126 -1.1524353 10.320374 1.2582703c1.751648 -4.679718 5.823242 -7.868561 10.4557495 -8.188843c4.6325073 -0.32028198 8.995422 2.285431 11.203857 6.691345c3.3236694 -1.76828 7.1505127 -2.0152893 10.61731 -0.68533325c3.4667969 1.3299255 6.281555 4.1248474 7.809204 7.7542114l0 0c3.2507324 -0.113708496 6.20459 1.975708 7.395508 5.2312317c1.190979 3.2555237 0.36553955 6.9841614 -2.0666504 9.335419l0 0c2.7111206 2.0914917 3.8626099 5.855133 2.8539429 9.328278c-1.008667 3.473175 -3.9488525 5.868866 -7.2874146 5.937805z" fill-rule="evenodd"/><path fill="#000000" fill-opacity="0.0" d="m590.2733 399.18665l0 0c-1.279419 -0.9869995 -2.8095093 -1.5215454 -4.3848267 -1.5319214m-0.9433594 -13.035004c-0.6798706 0.023803711 -1.3546143 0.144104 -2.006836 0.3578186m-16.418762 -7.426361c0.4069214 0.8118286 0.7322998 1.669342 0.9706421 2.5578918m-22.631042 -1.0603027l0 0c-0.31933594 0.85317993 -0.5549927 1.7397766 -0.7029419 2.64505m-15.750488 5.2304077c-0.3988037 4.265869 1.5027466 8.378998 4.8878784 10.572662m-14.482117 9.471039c0.6992798 -1.4010925 1.6868896 -2.6104126 2.885315 -3.5331116m2.109558 18.015594l0 0c-0.04736328 -0.59594727 -0.04144287 -1.1958923 0.01776123 -1.791565m14.618164 7.5217285l0 0c0.5952759 -0.6348877 1.1029663 -1.3587341 1.5072632 -2.1490479m11.658508 2.0033264l0 0c0.33929443 -0.59506226 0.60931396 -1.2328796 0.803833 -1.8987427m14.361145 0.7736206l0 0c-0.78912354 -0.60595703 -1.5064697 -1.3140564 -2.1362915 -2.1087341m21.123291 -9.164978l0 0c-0.026794434 -0.6839905 -0.103515625 -1.3641663 -0.22955322 -2.0341187" fill-rule="evenodd"/><path stroke="#ffad80" stroke-width="1.0" stroke-linejoin="round" stroke-linecap="butt" d="m585.76 414.63602l0 0c0.19415283 4.9627075 -2.246704 9.634766 -6.286865 12.0336c-4.040161 2.3988647 -8.971069 2.1037903 -12.700378 -0.75997925l0 0c-1.6426392 2.725006 -4.369507 4.4608154 -7.355774 4.682373c-2.986206 0.22155762 -5.8811035 -1.097168 -7.80896 -3.5572815l0 0c-1.4127808 2.4776611 -3.899475 4.00177 -6.5776367 4.031494c-2.6781616 0.029693604 -5.168762 -1.439209 -6.5880127 -3.8854675l0 0c-2.3863525 2.5450745 -5.9070435 3.3865967 -9.038818 2.1604614c-3.131775 -1.2261658 -5.3120117 -4.2997437 -5.597412 -7.890808l0 0c-2.567688 -1.0195618 -4.592102 -3.1996765 -5.55011 -5.977051c-0.9580078 -2.7773743 -0.75567627 -5.879608 0.5546875 -8.505127l0 0c-2.2797241 -3.895752 -2.4672852 -8.826172 -0.49273682 -12.951324c1.9745483 -4.125183 5.814575 -6.8253174 10.087097 -7.092804c0.37457275 -4.0068054 2.72052 -7.5003357 6.133667 -9.134033c3.413086 -1.6336975 7.3604126 -1.1524353 10.320374 1.2582703c1.751648 -4.679718 5.823242 -7.868561 10.4557495 -8.188843c4.6325073 -0.32028198 8.995422 2.285431 11.203857 6.691345c3.3236694 -1.76828 7.1505127 -2.0152893 10.61731 -0.68533325c3.4667969 1.3299255 6.281555 4.1248474 7.809204 7.7542114l0 0c3.2507324 -0.113708496 6.20459 1.975708 7.395508 5.2312317c1.190979 3.2555237 0.36553955 6.9841614 -2.0666504 9.335419l0 0c2.7111206 2.0914917 3.8626099 5.855133 2.8539429 9.328278c-1.008667 3.473175 -3.9488525 5.868866 -7.2874146 5.937805z" fill-rule="evenodd"/><path stroke="#ffad80" stroke-width="1.0" stroke-linejoin="round" stroke-linecap="butt" d="m590.2733 399.18665l0 0c-1.279419 -0.9869995 -2.8095093 -1.5215454 -4.3848267 -1.5319214m-0.9433594 -13.035004c-0.6798706 0.023803711 -1.3546143 0.144104 -2.006836 0.3578186m-16.418762 -7.426361c0.4069214 0.8118286 0.7322998 1.669342 0.9706421 2.5578918m-22.631042 -1.0603027l0 0c-0.31933594 0.85317993 -0.5549927 1.7397766 -0.7029419 2.64505m-15.750488 5.2304077c-0.3988037 4.265869 1.5027466 8.378998 4.8878784 10.572662m-14.482117 9.471039c0.6992798 -1.4010925 1.6868896 -2.6104126 2.885315 -3.5331116m2.109558 18.015594l0 0c-0.04736328 -0.59594727 -0.04144287 -1.1958923 0.01776123 -1.791565m14.618164 7.5217285l0 0c0.5952759 -0.6348877 1.1029663 -1.3587341 1.5072632 -2.1490479m11.658508 2.0033264l0 0c0.33929443 -0.59506226 0.60931396 -1.2328796 0.803833 -1.8987427m14.361145 0.7736206l0 0c-0.78912354 -0.60595703 -1.5064697 -1.3140564 -2.1362915 -2.1087341m21.123291 -9.164978l0 0c-0.026794434 -0.6839905 -0.103515625 -1.3641663 -0.22955322 -2.0341187" fill-rule="evenodd"/></g><path fill="#000000" d="m573.4913 397.45163l0 0c0 -2.7499695 2.0222778 -4.979248 4.5168457 -4.979248l0 0c1.197937 0 2.3468018 0.52459717 3.1938477 1.458374c0.84710693 0.9338074 1.322998 2.2002869 1.322998 3.520874l0 0c0 2.749939 -2.0222778 4.9792175 -4.5168457 4.9792175l0 0c-2.4945679 0 -4.5168457 -2.2292786 -4.5168457 -4.9792175z" fill-rule="evenodd"/><path stroke="#000000" stroke-width="1.0" stroke-linejoin="round" stroke-linecap="butt" d="m573.4913 397.45163l0 0c0 -2.7499695 2.0222778 -4.979248 4.5168457 -4.979248l0 0c1.197937 0 2.3468018 0.52459717 3.1938477 1.458374c0.84710693 0.9338074 1.322998 2.2002869 1.322998 3.520874l0 0c0 2.749939 -2.0222778 4.9792175 -4.5168457 4.9792175l0 0c-2.4945679 0 -4.5168457 -2.2292786 -4.5168457 -4.9792175z" fill-rule="evenodd"/><path fill="#ffffff" d="m577.9637 397.2111l0 0c0 -1.3703003 0.7913208 -2.4811707 1.767456 -2.4811707l0 0c0.46875 0 0.91833496 0.26141357 1.2497559 0.7267151c0.33148193 0.4653015 0.5177002 1.096405 0.5177002 1.7544556l0 0c0 1.3703308 -0.7913208 2.4811707 -1.767456 2.4811707l0 0c-0.97613525 0 -1.767456 -1.1108398 -1.767456 -2.4811707z" fill-rule="evenodd"/><path stroke="#000000" stroke-width="1.0" stroke-linejoin="round" stroke-linecap="butt" d="m577.9637 397.2111l0 0c0 -1.3703003 0.7913208 -2.4811707 1.767456 -2.4811707l0 0c0.46875 0 0.91833496 0.26141357 1.2497559 0.7267151c0.33148193 0.4653015 0.5177002 1.096405 0.5177002 1.7544556l0 0c0 1.3703308 -0.7913208 2.4811707 -1.767456 2.4811707l0 0c-0.97613525 0 -1.767456 -1.1108398 -1.767456 -2.4811707z" fill-rule="evenodd"/><path fill="#000000" d="m548.5505 401.00577l0 0c0 -2.749939 2.0222778 -4.9792175 4.5168457 -4.9792175l0 0c1.197937 0 2.3468018 0.52459717 3.1938477 1.458374c0.84710693 0.93377686 1.322998 2.2002869 1.322998 3.5208435l0 0c0 2.749939 -2.0222778 4.9792175 -4.5168457 4.9792175l0 0c-2.4945679 0 -4.5168457 -2.2292786 -4.5168457 -4.9792175z" fill-rule="evenodd"/><path stroke="#000000" stroke-width="1.0" stroke-linejoin="round" stroke-linecap="butt" d="m548.5505 401.00577l0 0c0 -2.749939 2.0222778 -4.9792175 4.5168457 -4.9792175l0 0c1.197937 0 2.3468018 0.52459717 3.1938477 1.458374c0.84710693 0.93377686 1.322998 2.2002869 1.322998 3.5208435l0 0c0 2.749939 -2.0222778 4.9792175 -4.5168457 4.9792175l0 0c-2.4945679 0 -4.5168457 -2.2292786 -4.5168457 -4.9792175z" fill-rule="evenodd"/><path fill="#ffffff" d="m553.0229 400.76526l0 0c0 -1.3703308 0.7913208 -2.4811707 1.767456 -2.4811707l0 0c0.46875 0 0.91833496 0.26138306 1.2497559 0.7267151c0.33148193 0.4653015 0.5177002 1.096405 0.5177002 1.7544556l0 0c0 1.3703003 -0.7913208 2.4811707 -1.767456 2.4811707l0 0c-0.97613525 0 -1.767456 -1.1108704 -1.767456 -2.4811707z" fill-rule="evenodd"/><path stroke="#000000" stroke-width="1.0" stroke-linejoin="round" stroke-linecap="butt" d="m553.0229 400.76526l0 0c0 -1.3703308 0.7913208 -2.4811707 1.767456 -2.4811707l0 0c0.46875 0 0.91833496 0.26138306 1.2497559 0.7267151c0.33148193 0.4653015 0.5177002 1.096405 0.5177002 1.7544556l0 0c0 1.3703003 -0.7913208 2.4811707 -1.767456 2.4811707l0 0c-0.97613525 0 -1.767456 -1.1108704 -1.767456 -2.4811707z" fill-rule="evenodd"/><path fill="#ffad80" fill-opacity="0.5083" d="m962.3307 345.6929l-964.6614 0l0 -35.338562l964.6614 0z" fill-rule="evenodd"/><path fill="#000000" fill-opacity="0.0" d="m221.85826 264.37796l516.28345 0l0 95.62204l-516.28345 0z" fill-rule="evenodd"/><path fill="#ffffff" d="m255.32701 322.31546l-13.875 0l-4.390625 15.0625l-5.203125 0l13.734375 -46.65625l5.53125 0l14.20314 46.65625l-5.40625 0l-4.5937653 -15.0625zm-12.609375 -4.9375l11.40625 0l-5.796875 -18.921875l-5.609375 18.921875zm70.267746 -15.0l-6.34375 35.0l-6.53125 0l-10.390625 -46.65625l5.1875 0l8.34375 38.390625l7.125 -38.390625l5.203125 0l7.125 38.390625l8.078125 -38.390625l5.328125 0l-10.265625 46.65625l-6.46875 0l-6.390625 -35.0zm48.98123 35.0q-7.1875 0.734375 -10.390625 0.734375q-7.0 0 -11.140625 -2.59375q-4.125 -2.609375 -4.125 -9.40625l0 -5.53125q0 -6.59375 4.59375 -8.859375q2.203125 -1.078125 5.40625 -1.078125q2.921875 0 5.921875 0.90625q3.0 0.90625 4.9375 2.296875q0 -6.859375 -9.390625 -6.859375l0.328125 -3.53125q6.390625 0 9.421875 2.03125q3.046875 2.03125 3.734375 4.828125q0.703125 2.796875 0.703125 7.203125l0 19.859375zm-4.796875 -19.203125q-2.328125 -1.125 -5.140625 -2.015625q-2.796875 -0.90625 -5.125 -0.90625q-5.796875 0 -5.796875 5.734375l0 5.1875q0 7.609375 10.390625 7.609375q2.078125 0 5.671875 -0.46875l0 -15.140625zm12.4036255 -27.453125l4.796875 0l0 46.65625l-4.796875 0l0 -46.65625zm22.065338 26.796875l-2.734375 2.390625l0 17.46875l-4.796875 0l0 -46.65625l4.796875 0l0 23.390625l12.328125 -11.390625l3.46875 3.328125l-9.53125 8.265625q4.859375 8.0625 14.328125 23.0625l-5.9375 0l-11.921875 -19.859375zm44.321686 -22.0q-1.140625 0 -1.96875 -0.828125q-0.828125 -0.84375 -0.828125 -1.90625q0 -1.0625 0.828125 -1.890625q0.828125 -0.84375 1.96875 -0.84375q1.0625 0 1.859375 0.8125q0.8125 0.796875 0.8125 1.921875q0 1.140625 -0.8125 1.9375q-0.796875 0.796875 -1.859375 0.796875zm-2.53125 8.46875l4.796875 0l0 33.390625l-4.796875 0l0 -33.390625zm34.591278 11.0625q0 -3.59375 -2.171875 -5.359375q-2.15625 -1.78125 -5.5 -1.78125q-1.859375 0 -3.796875 0.5q-1.921875 0.5 -3.53125 1.4375l0 27.53125l-4.796875 0l0 -33.390625l4.53125 0l0.0625 1.734375q1.53125 -1.078125 3.703125 -1.671875q2.171875 -0.59375 4.5625 -0.59375q3.46875 0 6.078125 1.1875q2.65625 1.203125 4.15625 3.609375q1.5 2.390625 1.5 6.0625l0 23.0625l-4.796875 0l0 -22.328125zm38.733673 23.1875q-4.265625 -0.796875 -6.140625 -3.1875q-1.859375 -2.40625 -1.859375 -6.46875l0 -37.859375l4.859375 0l0 13.265625l7.46875 0l-1.59375 4.53125l-5.875 0l0 20.0625q0 4.734375 4.53125 5.9375l-1.390625 3.71875zm29.922363 -22.984375q0 -3.9375 -2.140625 -5.671875q-2.125 -1.734375 -5.453125 -1.734375q-1.9375 0 -3.9375 0.53125q-2.0 0.53125 -3.46875 1.40625l0 27.59375l-4.796875 0l0 -46.65625l4.796875 0l0 14.59375q1.40625 -0.859375 3.5 -1.359375q2.109375 -0.5 4.375 -0.5q3.796875 0 6.265625 1.1875q2.65625 1.203125 4.15625 3.609375q1.5 2.390625 1.5 6.0625l0 23.0625l-4.796875 0l0 -22.125zm33.455383 19.796875q-2.390625 1.53125 -5.46875 2.328125q-3.0625 0.796875 -6.125 0.796875q-4.9375 0 -7.84375 -2.421875q-2.890625 -2.4375 -2.890625 -7.3125l0 -13.65625q0 -5.40625 3.359375 -8.40625q3.375 -3.0 8.90625 -3.0q5.53125 0 8.625 2.96875q3.109375 2.96875 3.109375 8.234375l0 9.125l-19.203125 1.0l0 3.46875q0 2.796875 1.734375 4.203125q1.734375 1.40625 4.734375 1.40625q4.34375 0 9.265625 -2.671875l1.796875 3.9375zm-3.1875 -20.734375q0 -3.53125 -2.203125 -5.03125q-2.203125 -1.5 -4.734375 -1.5q-3.328125 0 -5.375 1.796875q-2.03125 1.796875 -2.03125 5.265625l0 5.328125l14.34375 -0.734375l0 -5.125zm31.193726 -23.59375l16.0625 0q6.53125 0 9.6875 4.0625q3.171875 4.0625 3.171875 10.671875q0 4.1875 -0.734375 7.6875q-0.734375 3.5 -3.46875 6.203125q-2.71875 2.703125 -8.1875 2.703125l-11.734375 0l0 15.328125l-4.796875 0l0 -46.65625zm15.921875 26.65625q3.671875 0 5.5 -1.828125q1.84375 -1.828125 2.265625 -4.234375q0.4375 -2.40625 0.4375 -5.40625q0 -5.53125 -2.203125 -8.03125q-2.203125 -2.5 -6.265625 -2.5l-10.859375 0l0 22.0l11.125 0zm39.52771 20.0q-7.1875 0.734375 -10.390625 0.734375q-7.0 0 -11.140625 -2.59375q-4.125 -2.609375 -4.125 -9.40625l0 -5.53125q0 -6.59375 4.59375 -8.859375q2.203125 -1.078125 5.40625 -1.078125q2.921875 0 5.921875 0.90625q3.0 0.90625 4.9375 2.296875q0 -6.859375 -9.390625 -6.859375l0.328125 -3.53125q6.390625 0 9.421875 2.03125q3.046875 2.03125 3.734375 4.828125q0.703125 2.796875 0.703125 7.203125l0 19.859375zm-4.796875 -19.203125q-2.328125 -1.125 -5.140625 -2.015625q-2.796875 -0.90625 -5.125 -0.90625q-5.796875 0 -5.796875 5.734375l0 5.1875q0 7.609375 10.390625 7.609375q2.078125 0 5.671875 -0.46875l0 -15.140625zm11.2630005 -14.1875l4.671875 0l0 1.734375q3.125 -2.34375 7.390625 -2.34375q2.140625 0 5.203125 0.671875l-1.203125 4.53125q-2.0 -0.734375 -4.1875 -0.734375q-2.9375 0 -5.015625 1.234375q-2.0625 1.234375 -2.0625 3.5625l0 24.734375l-4.796875 0l0 -33.390625zm28.404724 13.53125l-2.734375 2.390625l0 17.46875l-4.796875 0l0 -46.65625l4.796875 0l0 23.390625l12.328125 -11.390625l3.46875 3.328125l-9.53125 8.265625q4.859375 8.0625 14.328125 23.0625l-5.9375 0l-11.921875 -19.859375z" fill-rule="nonzero"/><path fill="#ffad80" fill-opacity="0.5083" d="m585.22253 506.5092l-208.59845 0l0 -12.629913l208.59845 0z" fill-rule="evenodd"/><path fill="#000000" fill-opacity="0.0" d="m373.10117 472.48984l213.79526 0l0 35.338593l-213.79526 0z" fill-rule="evenodd"/><path fill="#ffffff" d="m392.7462 499.5036q-1.40625 0 -2.53125 -0.671875q-1.125 -0.6875 -1.78125 -1.859375q-0.640625 -1.1875 -0.640625 -2.65625q0 -1.484375 0.671875 -2.65625q0.6875 -1.1875 1.859375 -1.859375q1.171875 -0.6875 2.65625 -0.6875q1.453125 0 2.609375 0.6875q1.171875 0.671875 1.84375 1.859375q0.6875 1.171875 0.71875 2.65625l-0.640625 0.296875q0 1.375 -0.625 2.5q-0.625 1.109375 -1.703125 1.75q-1.0625 0.640625 -2.4375 0.640625zm0.234375 -1.4375q1.015625 0 1.84375 -0.484375q0.828125 -0.484375 1.28125 -1.34375q0.46875 -0.859375 0.46875 -1.921875q0 -1.078125 -0.46875 -1.921875q-0.453125 -0.859375 -1.28125 -1.34375q-0.828125 -0.5 -1.84375 -0.5q-1.03125 0 -1.859375 0.5q-0.8125 0.484375 -1.296875 1.34375q-0.484375 0.84375 -0.484375 1.921875q0 1.0625 0.484375 1.921875q0.484375 0.859375 1.296875 1.34375q0.828125 0.484375 1.859375 0.484375zm4.359375 1.34375q-0.359375 0 -0.578125 -0.203125q-0.21875 -0.21875 -0.21875 -0.578125l0 -3.078125l0.359375 -1.640625l1.25 0.40625l0 4.3125q0 0.359375 -0.234375 0.578125q-0.234375 0.203125 -0.578125 0.203125zm18.077911 4.359375q-0.359375 0 -0.578125 -0.21875q-0.21875 -0.21875 -0.21875 -0.578125l0 -5.328125q-0.640625 0.828125 -1.625 1.34375q-0.96875 0.515625 -2.171875 0.515625q-1.40625 0 -2.53125 -0.671875q-1.125 -0.6875 -1.78125 -1.859375q-0.640625 -1.1875 -0.640625 -2.65625q0 -1.484375 0.671875 -2.65625q0.6875 -1.1875 1.859375 -1.859375q1.171875 -0.6875 2.65625 -0.6875q1.453125 0 2.609375 0.6875q1.15625 0.671875 1.828125 1.84375q0.6875 1.15625 0.734375 2.609375l0 8.71875q0 0.359375 -0.234375 0.578125q-0.21875 0.21875 -0.578125 0.21875zm-4.359375 -5.703125q1.015625 0 1.84375 -0.484375q0.828125 -0.484375 1.28125 -1.34375q0.46875 -0.859375 0.46875 -1.921875q0 -1.078125 -0.46875 -1.921875q-0.453125 -0.859375 -1.28125 -1.34375q-0.828125 -0.5 -1.84375 -0.5q-1.03125 0 -1.859375 0.5q-0.8125 0.484375 -1.296875 1.34375q-0.484375 0.84375 -0.484375 1.921875q0 1.0625 0.484375 1.921875q0.484375 0.859375 1.296875 1.34375q0.828125 0.484375 1.859375 0.484375zm12.90567 1.453125q-1.3125 0 -2.34375 -0.546875q-1.03125 -0.546875 -1.625 -1.609375q-0.59375 -1.0625 -0.59375 -2.625l0 -4.75q0 -0.328125 0.21875 -0.546875q0.21875 -0.234375 0.5625 -0.234375q0.34375 0 0.5625 0.234375q0.234375 0.21875 0.234375 0.546875l0 4.75q0 1.125 0.421875 1.859375q0.421875 0.71875 1.140625 1.078125q0.734375 0.359375 1.640625 0.359375q0.875 0 1.578125 -0.328125q0.703125 -0.34375 1.109375 -0.9375q0.421875 -0.609375 0.421875 -1.359375l1.078125 0q-0.046875 1.1875 -0.625 2.109375q-0.578125 0.921875 -1.5625 1.46875q-0.984375 0.53125 -2.21875 0.53125zm4.125 -0.109375q-0.359375 0 -0.578125 -0.21875q-0.21875 -0.234375 -0.21875 -0.578125l0 -8.625q0 -0.359375 0.21875 -0.5625q0.21875 -0.21875 0.578125 -0.21875q0.359375 0 0.578125 0.21875q0.21875 0.203125 0.21875 0.5625l0 8.625q0 0.34375 -0.21875 0.578125q-0.21875 0.21875 -0.578125 0.21875zm8.573853 0.09375q-1.40625 0 -2.53125 -0.671875q-1.125 -0.6875 -1.78125 -1.859375q-0.640625 -1.1875 -0.640625 -2.65625q0 -1.484375 0.671875 -2.65625q0.6875 -1.1875 1.859375 -1.859375q1.171875 -0.6875 2.65625 -0.6875q1.453125 0 2.609375 0.6875q1.171875 0.671875 1.84375 1.859375q0.6875 1.171875 0.71875 2.65625l-0.640625 0.296875q0 1.375 -0.625 2.5q-0.625 1.109375 -1.703125 1.75q-1.0625 0.640625 -2.4375 0.640625zm0.234375 -1.4375q1.015625 0 1.84375 -0.484375q0.828125 -0.484375 1.28125 -1.34375q0.46875 -0.859375 0.46875 -1.921875q0 -1.078125 -0.46875 -1.921875q-0.453125 -0.859375 -1.28125 -1.34375q-0.828125 -0.5 -1.84375 -0.5q-1.03125 0 -1.859375 0.5q-0.8125 0.484375 -1.296875 1.34375q-0.484375 0.84375 -0.484375 1.921875q0 1.0625 0.484375 1.921875q0.484375 0.859375 1.296875 1.34375q0.828125 0.484375 1.859375 0.484375zm4.359375 1.34375q-0.359375 0 -0.578125 -0.203125q-0.21875 -0.21875 -0.21875 -0.578125l0 -3.078125l0.359375 -1.640625l1.25 0.40625l0 4.3125q0 0.359375 -0.234375 0.578125q-0.234375 0.203125 -0.578125 0.203125zm4.3147583 -6.328125q0.03125 -1.140625 0.578125 -2.03125q0.5625 -0.90625 1.453125 -1.421875q0.890625 -0.53125 2.0 -0.53125q0.953125 0 1.4375 0.28125q0.5 0.28125 0.375 0.765625q-0.0625 0.265625 -0.25 0.375q-0.171875 0.109375 -0.40625 0.109375q-0.234375 0 -0.53125 -0.03125q-1.078125 -0.140625 -1.9375 0.140625q-0.859375 0.265625 -1.359375 0.875q-0.5 0.609375 -0.5 1.46875l-0.859375 0zm0.078125 6.328125q-0.375 0 -0.59375 -0.203125q-0.203125 -0.203125 -0.203125 -0.578125l0 -8.640625q0 -0.375 0.203125 -0.578125q0.21875 -0.203125 0.59375 -0.203125q0.359375 0 0.5625 0.203125q0.21875 0.203125 0.21875 0.578125l0 8.640625q0 0.375 -0.21875 0.578125q-0.203125 0.203125 -0.5625 0.203125zm11.59079 0.09375q-1.40625 0 -2.53125 -0.671875q-1.125 -0.6875 -1.78125 -1.859375q-0.640625 -1.1875 -0.640625 -2.65625q0 -1.484375 0.671875 -2.65625q0.6875 -1.1875 1.859375 -1.859375q1.171875 -0.6875 2.65625 -0.6875q1.453125 0 2.609375 0.6875q1.171875 0.671875 1.84375 1.859375q0.6875 1.171875 0.71875 2.65625l-0.640625 0.296875q0 1.375 -0.625 2.5q-0.625 1.109375 -1.703125 1.75q-1.0625 0.640625 -2.4375 0.640625zm0.234375 -1.4375q1.015625 0 1.84375 -0.484375q0.828125 -0.484375 1.28125 -1.34375q0.46875 -0.859375 0.46875 -1.921875q0 -1.078125 -0.46875 -1.921875q-0.453125 -0.859375 -1.28125 -1.34375q-0.828125 -0.5 -1.84375 -0.5q-1.03125 0 -1.859375 0.5q-0.8125 0.484375 -1.296875 1.34375q-0.484375 0.84375 -0.484375 1.921875q0 1.0625 0.484375 1.921875q0.484375 0.859375 1.296875 1.34375q0.828125 0.484375 1.859375 0.484375zm4.359375 1.34375q-0.359375 0 -0.578125 -0.203125q-0.21875 -0.21875 -0.21875 -0.578125l0 -3.078125l0.359375 -1.640625l1.25 0.40625l0 4.3125q0 0.359375 -0.234375 0.578125q-0.234375 0.203125 -0.578125 0.203125zm12.314758 0q-0.359375 0 -0.578125 -0.21875q-0.21875 -0.234375 -0.21875 -0.5625l0 -4.765625q0 -1.125 -0.4375 -1.84375q-0.421875 -0.71875 -1.140625 -1.078125q-0.71875 -0.359375 -1.65625 -0.359375q-0.859375 0 -1.578125 0.34375q-0.703125 0.328125 -1.109375 0.921875q-0.40625 0.578125 -0.40625 1.34375l-1.0625 0q0.015625 -1.171875 0.59375 -2.09375q0.59375 -0.921875 1.578125 -1.453125q1.0 -0.546875 2.203125 -0.546875q1.328125 0 2.359375 0.546875q1.046875 0.546875 1.640625 1.609375q0.59375 1.0625 0.59375 2.609375l0 4.765625q0 0.328125 -0.21875 0.5625q-0.21875 0.21875 -0.5625 0.21875zm-7.90625 0q-0.359375 0 -0.59375 -0.203125q-0.21875 -0.21875 -0.21875 -0.578125l0 -8.625q0 -0.375 0.21875 -0.578125q0.234375 -0.21875 0.59375 -0.21875q0.34375 0 0.5625 0.21875q0.21875 0.203125 0.21875 0.578125l0 8.625q0 0.359375 -0.21875 0.578125q-0.21875 0.203125 -0.5625 0.203125zm15.761353 0q-0.96875 0 -1.734375 -0.46875q-0.765625 -0.46875 -1.203125 -1.28125q-0.4375 -0.828125 -0.4375 -1.84375l0 -9.0625q0 -0.34375 0.203125 -0.5625q0.21875 -0.234375 0.578125 -0.234375q0.34375 0 0.5625 0.234375q0.21875 0.21875 0.21875 0.5625l0 9.0625q0 0.875 0.515625 1.453125q0.515625 0.5625 1.296875 0.5625l0.546875 0q0.3125 0 0.515625 0.21875q0.203125 0.21875 0.203125 0.578125q0 0.359375 -0.25 0.578125q-0.25 0.203125 -0.640625 0.203125l-0.375 0zm-4.484375 -8.46875q-0.3125 0 -0.515625 -0.1875q-0.203125 -0.1875 -0.203125 -0.484375q0 -0.296875 0.203125 -0.484375q0.203125 -0.203125 0.515625 -0.203125l4.609375 0q0.328125 0 0.53125 0.203125q0.203125 0.1875 0.203125 0.484375q0 0.296875 -0.203125 0.484375q-0.203125 0.1875 -0.53125 0.1875l-4.609375 0zm9.156067 8.46875q-0.359375 0 -0.59375 -0.21875q-0.21875 -0.234375 -0.21875 -0.578125l0 -8.609375q0 -0.375 0.21875 -0.578125q0.234375 -0.21875 0.59375 -0.21875q0.34375 0 0.5625 0.21875q0.21875 0.203125 0.21875 0.578125l0 8.609375q0 0.34375 -0.21875 0.578125q-0.21875 0.21875 -0.5625 0.21875zm0.078125 -12.046875q-0.4375 0 -0.765625 -0.3125q-0.3125 -0.328125 -0.3125 -0.796875q0 -0.46875 0.328125 -0.765625q0.328125 -0.3125 0.78125 -0.3125q0.421875 0 0.75 0.3125q0.328125 0.296875 0.328125 0.765625q0 0.46875 -0.328125 0.796875q-0.328125 0.3125 -0.78125 0.3125zm13.028778 12.046875q-0.359375 0 -0.578125 -0.21875q-0.21875 -0.234375 -0.21875 -0.5625l0 -4.765625q0 -1.125 -0.4375 -1.84375q-0.421875 -0.71875 -1.140625 -1.078125q-0.71875 -0.359375 -1.65625 -0.359375q-0.859375 0 -1.578125 0.34375q-0.703125 0.328125 -1.109375 0.921875q-0.40625 0.578125 -0.40625 1.34375l-1.0625 0q0.015625 -1.171875 0.59375 -2.09375q0.59375 -0.921875 1.578125 -1.453125q1.0 -0.546875 2.203125 -0.546875q1.328125 0 2.359375 0.546875q1.046875 0.546875 1.640625 1.609375q0.59375 1.0625 0.59375 2.609375l0 4.765625q0 0.328125 -0.21875 0.5625q-0.21875 0.21875 -0.5625 0.21875zm-7.90625 0q-0.359375 0 -0.59375 -0.203125q-0.21875 -0.21875 -0.21875 -0.578125l0 -8.625q0 -0.375 0.21875 -0.578125q0.234375 -0.21875 0.59375 -0.21875q0.34375 0 0.5625 0.21875q0.21875 0.203125 0.21875 0.578125l0 8.625q0 0.359375 -0.21875 0.578125q-0.21875 0.203125 -0.5625 0.203125zm16.542603 0.09375q-1.53125 0 -2.703125 -0.65625q-1.171875 -0.671875 -1.84375 -1.84375q-0.671875 -1.171875 -0.671875 -2.6875q0 -1.53125 0.625 -2.6875q0.640625 -1.171875 1.75 -1.84375q1.109375 -0.671875 2.5625 -0.671875q1.4375 0 2.484375 0.640625q1.046875 0.640625 1.6094055 1.78125q0.578125 1.140625 0.578125 2.59375q0 0.3125 -0.21875 0.515625q-0.203125 0.1875 -0.515625 0.1875l-7.7969055 0l0 -1.28125l7.8750305 0l-0.7812805 0.5625q0 -1.03125 -0.390625 -1.84375q-0.390625 -0.828125 -1.109375 -1.296875q-0.71875 -0.46875 -1.734375 -0.46875q-1.0625 0 -1.84375 0.5q-0.78125 0.5 -1.21875 1.359375q-0.421875 0.859375 -0.421875 1.953125q0 1.09375 0.484375 1.953125q0.484375 0.84375 1.328125 1.34375q0.859375 0.484375 1.953125 0.484375q0.640625 0 1.296875 -0.21875q0.671875 -0.21875 1.0625 -0.5625q0.21875 -0.1875 0.5 -0.1875q0.296875 -0.015625 0.5 0.15625q0.26565552 0.234375 0.26565552 0.53125q0.015625 0.28125 -0.23440552 0.5q-0.625 0.515625 -1.578125 0.859375q-0.9375 0.328125 -1.8125 0.328125zm16.692902 0q-1.453125 0 -2.578125 -0.65625q-1.109375 -0.671875 -1.75 -1.84375q-0.625 -1.171875 -0.625 -2.6875q0 -1.53125 0.671875 -2.703125q0.671875 -1.171875 1.828125 -1.828125q1.171875 -0.671875 2.6875 -0.671875q1.484375 0 2.65625 0.671875q1.171875 0.65625 1.828125 1.828125q0.65625 1.171875 0.6875 2.703125l-0.9375 0.296875q0 1.421875 -0.578125 2.53125q-0.578125 1.109375 -1.59375 1.734375q-1.0 0.625 -2.296875 0.625zm0.234375 4.015625q-1.421875 0 -2.546875 -0.546875q-1.125 -0.546875 -1.890625 -1.515625q-0.21875 -0.25 -0.1875 -0.546875q0.046875 -0.28125 0.3125 -0.453125q0.28125 -0.1875 0.59375 -0.140625q0.3125 0.0625 0.5 0.328125q0.53125 0.65625 1.34375 1.046875q0.828125 0.390625 1.90625 0.390625q0.984375 0 1.796875 -0.484375q0.8125 -0.46875 1.28125 -1.375q0.484375 -0.890625 0.484375 -2.09375l0 -2.78125l0.578125 -1.265625l1.0 0.234375l0 3.875q0 1.5 -0.671875 2.703125q-0.671875 1.203125 -1.84375 1.90625q-1.15625 0.71875 -2.65625 0.71875zm0 -5.453125q1.046875 0 1.859375 -0.46875q0.828125 -0.484375 1.28125 -1.328125q0.453125 -0.859375 0.453125 -1.953125q0 -1.09375 -0.453125 -1.953125q-0.453125 -0.859375 -1.28125 -1.328125q-0.8125 -0.484375 -1.859375 -0.484375q-1.0625 0 -1.890625 0.484375q-0.8125 0.46875 -1.28125 1.328125q-0.46875 0.859375 -0.46875 1.953125q0 1.09375 0.46875 1.953125q0.46875 0.84375 1.28125 1.328125q0.828125 0.46875 1.890625 0.46875zm12.377258 1.4375q-1.40625 0 -2.53125 -0.671875q-1.125 -0.6875 -1.78125 -1.859375q-0.640625 -1.1875 -0.640625 -2.65625q0 -1.484375 0.671875 -2.65625q0.6875 -1.1875 1.859375 -1.859375q1.171875 -0.6875 2.65625 -0.6875q1.453125 0 2.609375 0.6875q1.171875 0.671875 1.84375 1.859375q0.6875 1.171875 0.71875 2.65625l-0.640625 0.296875q0 1.375 -0.625 2.5q-0.625 1.109375 -1.703125 1.75q-1.0625 0.640625 -2.4375 0.640625zm0.234375 -1.4375q1.015625 0 1.84375 -0.484375q0.828125 -0.484375 1.28125 -1.34375q0.46875 -0.859375 0.46875 -1.921875q0 -1.078125 -0.46875 -1.921875q-0.453125 -0.859375 -1.28125 -1.34375q-0.828125 -0.5 -1.84375 -0.5q-1.03125 0 -1.859375 0.5q-0.8125 0.484375 -1.296875 1.34375q-0.484375 0.84375 -0.484375 1.921875q0 1.0625 0.484375 1.921875q0.484375 0.859375 1.296875 1.34375q0.828125 0.484375 1.859375 0.484375zm4.359375 1.34375q-0.359375 0 -0.578125 -0.203125q-0.21875 -0.21875 -0.21875 -0.578125l0 -3.078125l0.359375 -1.640625l1.25 0.40625l0 4.3125q0 0.359375 -0.234375 0.578125q-0.234375 0.203125 -0.578125 0.203125zm17.252258 0q-0.34375 0 -0.578125 -0.203125q-0.21875 -0.21875 -0.21875 -0.578125l0 -5.359375q0 -1.28125 -0.65625 -1.984375q-0.640625 -0.703125 -1.671875 -0.703125q-1.109375 0 -1.8125 0.75q-0.6875 0.734375 -0.671875 1.9375l-1.375 0q0.015625 -1.25 0.53125 -2.1875q0.53125 -0.9375 1.453125 -1.453125q0.921875 -0.53125 2.09375 -0.53125q1.078125 0 1.921875 0.5q0.84375 0.5 1.3125 1.453125q0.46875 0.9375 0.46875 2.21875l0 5.359375q0 0.359375 -0.21875 0.578125q-0.21875 0.203125 -0.578125 0.203125zm-12.84375 0q-0.359375 0 -0.59375 -0.203125q-0.21875 -0.21875 -0.21875 -0.578125l0 -8.625q0 -0.34375 0.21875 -0.5625q0.234375 -0.234375 0.59375 -0.234375q0.34375 0 0.5625 0.234375q0.21875 0.21875 0.21875 0.5625l0 8.625q0 0.359375 -0.21875 0.578125q-0.21875 0.203125 -0.5625 0.203125zm6.4375 0q-0.34375 0 -0.578125 -0.203125q-0.234375 -0.21875 -0.234375 -0.578125l0 -5.359375q0 -1.28125 -0.65625 -1.984375q-0.640625 -0.703125 -1.671875 -0.703125q-1.09375 0 -1.8125 0.734375q-0.703125 0.71875 -0.703125 1.875l-1.0625 0q0.015625 -1.203125 0.5 -2.125q0.5 -0.921875 1.359375 -1.4375q0.859375 -0.53125 1.9375 -0.53125q1.09375 0 1.921875 0.5q0.84375 0.5 1.3125 1.453125q0.484375 0.9375 0.484375 2.21875l0 5.359375q0 0.359375 -0.234375 0.578125q-0.21875 0.203125 -0.5625 0.203125zm15.049011 0.09375q-1.53125 0 -2.703125 -0.65625q-1.171875 -0.671875 -1.84375 -1.84375q-0.671875 -1.171875 -0.671875 -2.6875q0 -1.53125 0.625 -2.6875q0.640625 -1.171875 1.75 -1.84375q1.109375 -0.671875 2.5625 -0.671875q1.4375 0 2.484375 0.640625q1.046875 0.640625 1.609375 1.78125q0.578125 1.140625 0.578125 2.59375q0 0.3125 -0.21875 0.515625q-0.203125 0.1875 -0.515625 0.1875l-7.796875 0l0 -1.28125l7.875 0l-0.78125 0.5625q0 -1.03125 -0.390625 -1.84375q-0.390625 -0.828125 -1.109375 -1.296875q-0.71875 -0.46875 -1.734375 -0.46875q-1.0625 0 -1.84375 0.5q-0.78125 0.5 -1.21875 1.359375q-0.421875 0.859375 -0.421875 1.953125q0 1.09375 0.484375 1.953125q0.484375 0.84375 1.328125 1.34375q0.859375 0.484375 1.953125 0.484375q0.640625 0 1.296875 -0.21875q0.671875 -0.21875 1.0625 -0.5625q0.21875 -0.1875 0.5 -0.1875q0.296875 -0.015625 0.5 0.15625q0.265625 0.234375 0.265625 0.53125q0.015625 0.28125 -0.234375 0.5q-0.625 0.515625 -1.578125 0.859375q-0.9375 0.328125 -1.8125 0.328125z" fill-rule="nonzero"/><path fill="#000000" fill-opacity="0.0" d="m267.84286 507.83032l424.31497 0l0 29.13385l-424.31497 0z" fill-rule="evenodd"/><path fill="#ffffff" d="m338.85837 529.6303q-0.375 0 -0.515625 -0.3125q-0.125 -0.328125 0.125 -0.6875l5.625 -8.9375q0.3125 -0.46875 0.765625 -0.46875q0.484375 0 0.546875 0.46875l1.84375 8.96875q0.078125 0.375 -0.1875 0.671875q-0.25 0.296875 -0.640625 0.296875q-0.1875 0 -0.34375 -0.109375q-0.15625 -0.125 -0.203125 -0.3125l-1.546875 -8.21875l0.375 0l-5.109375 8.21875q-0.140625 0.203125 -0.34375 0.3125q-0.203125 0.109375 -0.390625 0.109375zm1.1875 -2.296875l0.78125 -1.140625l5.234375 0l0.28125 1.140625l-6.296875 0zm15.384125 2.34375q-0.96875 0 -1.640625 -0.484375q-0.65625 -0.484375 -0.9375 -1.3125q-0.265625 -0.828125 -0.03125 -1.890625q0.21875 -1.046875 0.875 -1.890625q0.671875 -0.84375 1.609375 -1.328125q0.9375 -0.484375 1.96875 -0.484375q1.046875 0 1.765625 0.484375q0.734375 0.484375 1.03125 1.328125q0.3125 0.84375 0.09375 1.890625l-0.515625 0q-0.234375 1.0625 -0.859375 1.890625q-0.625 0.828125 -1.5 1.3125q-0.875 0.484375 -1.859375 0.484375zm0.53125 -1.1875q0.6875 0 1.28125 -0.328125q0.59375 -0.328125 1.015625 -0.890625q0.4375 -0.578125 0.59375 -1.28125q0.140625 -0.71875 -0.046875 -1.28125q-0.171875 -0.5625 -0.640625 -0.890625q-0.453125 -0.328125 -1.140625 -0.328125q-0.65625 0 -1.265625 0.328125q-0.609375 0.328125 -1.0625 0.890625q-0.4375 0.5625 -0.578125 1.28125q-0.15625 0.703125 0.03125 1.28125q0.203125 0.5625 0.671875 0.890625q0.484375 0.328125 1.140625 0.328125zm2.734375 1.15625q-0.28125 0 -0.4375 -0.1875q-0.15625 -0.203125 -0.09375 -0.5l0.4375 -2.03125l0.546875 -1.421875l1.015625 0.484375l-0.640625 2.96875q-0.0625 0.296875 -0.296875 0.5q-0.234375 0.1875 -0.53125 0.1875zm9.089081 -0.03125q-0.421875 0 -0.546875 -0.4375l-1.5625 -5.953125q-0.0625 -0.234375 0.0625 -0.453125q0.140625 -0.21875 0.421875 -0.34375q0.25 -0.109375 0.46875 -0.03125q0.21875 0.078125 0.28125 0.296875l1.4375 5.703125l-0.640625 0l3.8125 -5.703125q0.171875 -0.21875 0.4375 -0.296875q0.265625 -0.078125 0.5 0.03125q0.203125 0.109375 0.234375 0.34375q0.03125 0.21875 -0.109375 0.453125l-4.09375 5.953125q-0.296875 0.4375 -0.703125 0.4375zm11.755768 0.0625q-0.96875 0 -1.640625 -0.484375q-0.65625 -0.484375 -0.9375 -1.3125q-0.265625 -0.828125 -0.03125 -1.890625q0.21875 -1.046875 0.875 -1.890625q0.671875 -0.84375 1.609375 -1.328125q0.9375 -0.484375 1.96875 -0.484375q1.046875 0 1.765625 0.484375q0.734375 0.484375 1.03125 1.328125q0.3125 0.84375 0.09375 1.890625l-0.515625 0q-0.234375 1.0625 -0.859375 1.890625q-0.625 0.828125 -1.5 1.3125q-0.875 0.484375 -1.859375 0.484375zm0.53125 -1.1875q0.6875 0 1.28125 -0.328125q0.59375 -0.328125 1.015625 -0.890625q0.4375 -0.578125 0.59375 -1.28125q0.140625 -0.71875 -0.046875 -1.28125q-0.171875 -0.5625 -0.640625 -0.890625q-0.453125 -0.328125 -1.140625 -0.328125q-0.65625 0 -1.265625 0.328125q-0.609375 0.328125 -1.0625 0.890625q-0.4375 0.5625 -0.578125 1.28125q-0.15625 0.703125 0.03125 1.28125q0.203125 0.5625 0.671875 0.890625q0.484375 0.328125 1.140625 0.328125zm2.734375 1.15625q-0.28125 0 -0.4375 -0.1875q-0.15625 -0.203125 -0.09375 -0.5l0.4375 -2.03125l0.546875 -1.421875l1.015625 0.484375l-0.640625 2.96875q-0.0625 0.296875 -0.296875 0.5q-0.234375 0.1875 -0.53125 0.1875zm13.931702 0.125q-0.859375 0 -1.578125 -0.265625q-0.703125 -0.28125 -1.1875 -0.75q-0.46875 -0.484375 -0.59375 -1.109375q-0.078125 -0.28125 0.109375 -0.515625q0.1875 -0.25 0.546875 -0.3125q0.25 -0.046875 0.453125 0.078125q0.203125 0.125 0.265625 0.375q0.109375 0.328125 0.40625 0.609375q0.3125 0.28125 0.78125 0.453125q0.484375 0.171875 1.0625 0.171875q0.640625 0 1.21875 -0.1875q0.59375 -0.203125 1.0 -0.578125q0.421875 -0.390625 0.546875 -0.953125q0.140625 -0.703125 -0.296875 -1.265625q-0.421875 -0.5625 -1.671875 -0.6875q-1.625 -0.15625 -2.40625 -0.96875q-0.765625 -0.8125 -0.5 -2.015625q0.1875 -0.875 0.8125 -1.484375q0.625 -0.625 1.53125 -0.9375q0.90625 -0.328125 1.953125 -0.328125q0.8125 0 1.359375 0.234375q0.5625 0.21875 0.921875 0.625q0.375 0.390625 0.609375 0.9375q0.125 0.296875 0.03125 0.5625q-0.09375 0.25 -0.34375 0.40625q-0.28125 0.15625 -0.5625 0.0625q-0.28125 -0.09375 -0.375 -0.34375q-0.125 -0.390625 -0.375 -0.65625q-0.25 -0.265625 -0.640625 -0.421875q-0.375 -0.15625 -0.9375 -0.15625q-0.984375 -0.015625 -1.734375 0.375q-0.734375 0.375 -0.90625 1.15625q-0.078125 0.40625 0.046875 0.78125q0.125 0.359375 0.625 0.625q0.5 0.265625 1.515625 0.375q1.546875 0.15625 2.265625 0.96875q0.71875 0.796875 0.4375 2.125q-0.15625 0.75 -0.59375 1.3125q-0.4375 0.5625 -1.046875 0.953125q-0.609375 0.375 -1.328125 0.5625q-0.703125 0.1875 -1.421875 0.1875zm12.684204 -0.09375q-0.96875 0 -1.640625 -0.484375q-0.65625 -0.484375 -0.9375 -1.3125q-0.265625 -0.828125 -0.03125 -1.890625q0.21875 -1.046875 0.875 -1.890625q0.671875 -0.84375 1.609375 -1.328125q0.9375 -0.484375 1.96875 -0.484375q1.046875 0 1.765625 0.484375q0.734375 0.484375 1.03125 1.328125q0.3125 0.84375 0.09375 1.890625l-0.515625 0q-0.234375 1.0625 -0.859375 1.890625q-0.625 0.828125 -1.5 1.3125q-0.875 0.484375 -1.859375 0.484375zm0.53125 -1.1875q0.6875 0 1.28125 -0.328125q0.59375 -0.328125 1.015625 -0.890625q0.4375 -0.578125 0.59375 -1.28125q0.140625 -0.71875 -0.046875 -1.28125q-0.171875 -0.5625 -0.640625 -0.890625q-0.453125 -0.328125 -1.140625 -0.328125q-0.65625 0 -1.265625 0.328125q-0.609375 0.328125 -1.0625 0.890625q-0.4375 0.5625 -0.578125 1.28125q-0.15625 0.703125 0.03125 1.28125q0.203125 0.5625 0.671875 0.890625q0.484375 0.328125 1.140625 0.328125zm2.734375 1.15625q-0.28125 0 -0.4375 -0.1875q-0.15625 -0.203125 -0.09375 -0.5l0.4375 -2.03125l0.546875 -1.421875l1.015625 0.484375l-0.640625 2.96875q-0.0625 0.296875 -0.296875 0.5q-0.234375 0.1875 -0.53125 0.1875zm6.620331 3.109375q-0.28125 0 -0.4375 -0.203125q-0.140625 -0.1875 -0.078125 -0.484375l1.296875 -6.078125q0.234375 -1.046875 0.890625 -1.890625q0.65625 -0.84375 1.578125 -1.328125q0.9375 -0.484375 1.96875 -0.484375q1.0625 0 1.78125 0.484375q0.734375 0.484375 1.03125 1.328125q0.3125 0.84375 0.09375 1.890625q-0.234375 1.0625 -0.859375 1.890625q-0.609375 0.828125 -1.5 1.3125q-0.875 0.484375 -1.859375 0.484375q-0.78125 0 -1.375 -0.3125q-0.578125 -0.328125 -0.921875 -0.890625l-0.765625 3.59375q-0.0625 0.296875 -0.296875 0.484375q-0.234375 0.203125 -0.546875 0.203125zm3.90625 -4.265625q0.6875 0 1.28125 -0.328125q0.59375 -0.328125 1.03125 -0.890625q0.4375 -0.578125 0.59375 -1.28125q0.140625 -0.71875 -0.046875 -1.28125q-0.1875 -0.5625 -0.65625 -0.890625q-0.453125 -0.328125 -1.140625 -0.328125q-0.65625 0 -1.265625 0.328125q-0.609375 0.328125 -1.046875 0.890625q-0.4375 0.5625 -0.578125 1.28125q-0.15625 0.703125 0.03125 1.28125q0.1875 0.5625 0.65625 0.890625q0.484375 0.328125 1.140625 0.328125zm11.21225 -1.53125l-0.625 -0.90625l4.859375 -3.640625q0.234375 -0.1875 0.484375 -0.171875q0.25 0 0.375 0.203125q0.140625 0.203125 0.0625 0.453125q-0.0625 0.234375 -0.28125 0.421875l-4.875 3.640625zm-1.1875 2.671875q-0.296875 0 -0.4375 -0.171875q-0.140625 -0.1875 -0.078125 -0.484375l1.9375 -9.09375q0.0625 -0.296875 0.28125 -0.46875q0.21875 -0.1875 0.515625 -0.1875q0.28125 0 0.421875 0.1875q0.140625 0.171875 0.078125 0.46875l-1.9375 9.09375q-0.0625 0.296875 -0.28125 0.484375q-0.21875 0.171875 -0.5 0.171875zm4.765625 -0.0625q-0.25 0.171875 -0.515625 0.140625q-0.25 -0.015625 -0.375 -0.21875l-2.0 -3.34375l1.140625 -0.890625l2.03125 3.421875q0.125 0.203125 0.046875 0.453125q-0.0625 0.25 -0.328125 0.4375zm9.348175 0.109375q-1.078125 0 -1.8125 -0.46875q-0.71875 -0.46875 -1.015625 -1.296875q-0.28125 -0.84375 -0.046875 -1.921875q0.21875 -1.09375 0.859375 -1.921875q0.65625 -0.828125 1.578125 -1.296875q0.9375 -0.484375 2.015625 -0.484375q1.078125 0 1.796875 0.484375q0.71875 0.46875 1.015625 1.296875q0.296875 0.828125 0.078125 1.921875q-0.234375 1.078125 -0.890625 1.921875q-0.640625 0.828125 -1.578125 1.296875q-0.921875 0.46875 -2.0 0.46875zm0.265625 -1.1875q0.703125 0 1.296875 -0.3125q0.59375 -0.328125 1.015625 -0.890625q0.421875 -0.5625 0.578125 -1.296875q0.15625 -0.734375 -0.03125 -1.296875q-0.171875 -0.5625 -0.640625 -0.875q-0.453125 -0.328125 -1.15625 -0.328125q-0.6875 0 -1.296875 0.328125q-0.59375 0.3125 -1.03125 0.875q-0.421875 0.5625 -0.578125 1.296875q-0.15625 0.734375 0.03125 1.296875q0.1875 0.5625 0.65625 0.890625q0.46875 0.3125 1.15625 0.3125zm12.010956 1.140625q-0.671875 0 -1.140625 -0.34375q-0.453125 -0.34375 -0.640625 -0.921875q-0.1875 -0.59375 -0.03125 -1.3125l1.359375 -6.359375q0.0625 -0.296875 0.28125 -0.484375q0.234375 -0.1875 0.53125 -0.1875q0.296875 0 0.4375 0.1875q0.15625 0.1875 0.09375 0.484375l-1.359375 6.359375q-0.109375 0.53125 0.09375 0.890625q0.21875 0.359375 0.65625 0.359375l0.453125 0q0.234375 0 0.359375 0.1875q0.125 0.1875 0.0625 0.46875q-0.0625 0.296875 -0.328125 0.484375q-0.25 0.1875 -0.59375 0.1875l-0.234375 0zm-1.71875 -5.875q-0.28125 0 -0.421875 -0.15625q-0.140625 -0.171875 -0.078125 -0.40625q0.046875 -0.265625 0.25 -0.421875q0.21875 -0.171875 0.5 -0.171875l3.078125 0q0.28125 0 0.40625 0.171875q0.140625 0.15625 0.09375 0.421875q-0.0625 0.234375 -0.265625 0.40625q-0.203125 0.15625 -0.484375 0.15625l-3.078125 0zm11.327789 5.921875q-0.96875 0 -1.640625 -0.484375q-0.65625 -0.484375 -0.9375 -1.3125q-0.265625 -0.828125 -0.03125 -1.890625q0.21875 -1.046875 0.875 -1.890625q0.671875 -0.84375 1.609375 -1.328125q0.9375 -0.484375 1.96875 -0.484375q1.046875 0 1.765625 0.484375q0.734375 0.484375 1.03125 1.328125q0.3125 0.84375 0.09375 1.890625l-0.515625 0q-0.234375 1.0625 -0.859375 1.890625q-0.625 0.828125 -1.5 1.3125q-0.875 0.484375 -1.859375 0.484375zm0.53125 -1.1875q0.6875 0 1.28125 -0.328125q0.59375 -0.328125 1.015625 -0.890625q0.4375 -0.578125 0.59375 -1.28125q0.140625 -0.71875 -0.046875 -1.28125q-0.171875 -0.5625 -0.640625 -0.890625q-0.453125 -0.328125 -1.140625 -0.328125q-0.65625 0 -1.265625 0.328125q-0.609375 0.328125 -1.0625 0.890625q-0.4375 0.5625 -0.578125 1.28125q-0.15625 0.703125 0.03125 1.28125q0.203125 0.5625 0.671875 0.890625q0.484375 0.328125 1.140625 0.328125zm2.734375 1.15625q-0.28125 0 -0.4375 -0.1875q-0.15625 -0.203125 -0.09375 -0.5l0.4375 -2.03125l0.546875 -1.421875l1.015625 0.484375l-0.640625 2.96875q-0.0625 0.296875 -0.296875 0.5q-0.234375 0.1875 -0.53125 0.1875zm16.602448 0.171875q-0.84375 0 -1.40625 -0.3125q-0.5625 -0.3125 -0.796875 -0.890625q-0.234375 -0.578125 -0.0625 -1.390625q0.1875 -0.90625 0.953125 -1.640625q0.78125 -0.734375 1.953125 -1.53125l1.296875 -0.890625q0.828125 -0.5625 1.109375 -0.984375q0.28125 -0.421875 0.390625 -0.875q0.109375 -0.515625 -0.15625 -0.875q-0.25 -0.375 -0.890625 -0.375q-0.59375 0 -1.03125 0.34375q-0.421875 0.34375 -0.515625 0.8125q-0.078125 0.34375 0 0.6875q0.09375 0.328125 0.359375 0.671875l4.78125 6.046875q0.171875 0.21875 0.15625 0.40625q-0.015625 0.1875 -0.265625 0.390625q-0.53125 0.4375 -0.859375 0l-4.828125 -6.109375q-0.359375 -0.46875 -0.5 -0.984375q-0.125 -0.515625 0 -1.078125q0.140625 -0.640625 0.5625 -1.15625q0.4375 -0.515625 1.046875 -0.8125q0.625 -0.296875 1.328125 -0.296875q0.71875 0 1.203125 0.3125q0.484375 0.3125 0.6875 0.84375q0.21875 0.53125 0.078125 1.203125q-0.109375 0.515625 -0.390625 0.9375q-0.265625 0.421875 -0.734375 0.828125q-0.453125 0.40625 -1.15625 0.890625l-1.234375 0.84375q-0.53125 0.359375 -0.96875 0.734375q-0.4375 0.375 -0.71875 0.765625q-0.28125 0.390625 -0.375 0.828125q-0.171875 0.75 0.15625 1.140625q0.328125 0.375 1.078125 0.375q0.796875 0 1.46875 -0.359375q0.671875 -0.375 1.4375 -1.015625l2.375 -2.0625q0.234375 -0.203125 0.421875 -0.25q0.1875 -0.0625 0.359375 0.140625q0.171875 0.1875 0.125 0.40625q-0.03125 0.21875 -0.28125 0.4375l-2.375 2.0625q-0.859375 0.78125 -1.796875 1.28125q-0.921875 0.5 -1.984375 0.5zm22.692566 -0.046875q-0.859375 0 -1.578125 -0.265625q-0.703125 -0.28125 -1.1875 -0.75q-0.46875 -0.484375 -0.59375 -1.109375q-0.078125 -0.28125 0.109375 -0.515625q0.1875 -0.25 0.546875 -0.3125q0.25 -0.046875 0.453125 0.078125q0.203125 0.125 0.265625 0.375q0.109375 0.328125 0.40625 0.609375q0.3125 0.28125 0.78125 0.453125q0.484375 0.171875 1.0625 0.171875q0.640625 0 1.21875 -0.1875q0.59375 -0.203125 1.0 -0.578125q0.421875 -0.390625 0.546875 -0.953125q0.140625 -0.703125 -0.296875 -1.265625q-0.421875 -0.5625 -1.671875 -0.6875q-1.625 -0.15625 -2.40625 -0.96875q-0.765625 -0.8125 -0.5 -2.015625q0.1875 -0.875 0.8125 -1.484375q0.625 -0.625 1.53125 -0.9375q0.90625 -0.328125 1.953125 -0.328125q0.8125 0 1.359375 0.234375q0.5625 0.21875 0.921875 0.625q0.375 0.390625 0.609375 0.9375q0.125 0.296875 0.03125 0.5625q-0.09375 0.25 -0.34375 0.40625q-0.28125 0.15625 -0.5625 0.0625q-0.28125 -0.09375 -0.375 -0.34375q-0.125 -0.390625 -0.375 -0.65625q-0.25 -0.265625 -0.640625 -0.421875q-0.375 -0.15625 -0.9375 -0.15625q-0.984375 -0.015625 -1.734375 0.375q-0.734375 0.375 -0.90625 1.15625q-0.078125 0.40625 0.046875 0.78125q0.125 0.359375 0.625 0.625q0.5 0.265625 1.515625 0.375q1.546875 0.15625 2.265625 0.96875q0.71875 0.796875 0.4375 2.125q-0.15625 0.75 -0.59375 1.3125q-0.4375 0.5625 -1.046875 0.953125q-0.609375 0.375 -1.328125 0.5625q-0.703125 0.1875 -1.421875 0.1875zm12.684204 -0.09375q-0.96875 0 -1.640625 -0.484375q-0.65625 -0.484375 -0.9375 -1.3125q-0.265625 -0.828125 -0.03125 -1.890625q0.21875 -1.046875 0.875 -1.890625q0.671875 -0.84375 1.609375 -1.328125q0.9375 -0.484375 1.96875 -0.484375q1.046875 0 1.765625 0.484375q0.734375 0.484375 1.03125 1.328125q0.3125 0.84375 0.09375 1.890625l-0.515625 0q-0.234375 1.0625 -0.859375 1.890625q-0.625 0.828125 -1.5 1.3125q-0.875 0.484375 -1.859375 0.484375zm0.53125 -1.1875q0.6875 0 1.28125 -0.328125q0.59375 -0.328125 1.015625 -0.890625q0.4375 -0.578125 0.59375 -1.28125q0.140625 -0.71875 -0.046875 -1.28125q-0.171875 -0.5625 -0.640625 -0.890625q-0.453125 -0.328125 -1.140625 -0.328125q-0.65625 0 -1.265625 0.328125q-0.609375 0.328125 -1.0625 0.890625q-0.4375 0.5625 -0.578125 1.28125q-0.15625 0.703125 0.03125 1.28125q0.203125 0.5625 0.671875 0.890625q0.484375 0.328125 1.140625 0.328125zm2.734375 1.15625q-0.28125 0 -0.4375 -0.1875q-0.15625 -0.203125 -0.09375 -0.5l0.4375 -2.03125l0.546875 -1.421875l1.015625 0.484375l-0.640625 2.96875q-0.0625 0.296875 -0.296875 0.5q-0.234375 0.1875 -0.53125 0.1875zm8.245361 -4.578125q0.171875 -0.796875 0.6875 -1.421875q0.53125 -0.640625 1.265625 -1.015625q0.75 -0.375 1.546875 -0.375q0.8125 0 1.140625 0.265625q0.34375 0.265625 0.171875 0.625q-0.078125 0.1875 -0.21875 0.28125q-0.125 0.09375 -0.28125 0.125q-0.15625 0.03125 -0.3125 -0.015625q-0.828125 -0.171875 -1.546875 -0.015625q-0.703125 0.140625 -1.1875 0.546875q-0.46875 0.390625 -0.59375 1.0l-0.671875 0zm-0.96875 4.5625q-0.3125 0 -0.453125 -0.15625q-0.140625 -0.171875 -0.0625 -0.515625l1.265625 -5.953125q0.0625 -0.3125 0.265625 -0.484375q0.21875 -0.1875 0.53125 -0.1875q0.34375 0 0.46875 0.171875q0.140625 0.171875 0.0625 0.5l-1.265625 5.953125q-0.0625 0.328125 -0.265625 0.5q-0.203125 0.171875 -0.546875 0.171875zm12.741943 0.046875q-0.96875 0 -1.640625 -0.484375q-0.65625 -0.484375 -0.9375 -1.3125q-0.265625 -0.828125 -0.03125 -1.890625q0.21875 -1.046875 0.875 -1.890625q0.671875 -0.84375 1.609375 -1.328125q0.9375 -0.484375 1.96875 -0.484375q1.046875 0 1.765625 0.484375q0.734375 0.484375 1.03125 1.328125q0.3125 0.84375 0.09375 1.890625l-0.515625 0q-0.234375 1.0625 -0.859375 1.890625q-0.625 0.828125 -1.5 1.3125q-0.875 0.484375 -1.859375 0.484375zm0.53125 -1.1875q0.6875 0 1.28125 -0.328125q0.59375 -0.328125 1.015625 -0.890625q0.4375 -0.578125 0.59375 -1.28125q0.140625 -0.71875 -0.046875 -1.28125q-0.171875 -0.5625 -0.640625 -0.890625q-0.453125 -0.328125 -1.140625 -0.328125q-0.65625 0 -1.265625 0.328125q-0.609375 0.328125 -1.0625 0.890625q-0.4375 0.5625 -0.578125 1.28125q-0.15625 0.703125 0.03125 1.28125q0.203125 0.5625 0.671875 0.890625q0.484375 0.328125 1.140625 0.328125zm2.734375 1.15625q-0.28125 0 -0.4375 -0.1875q-0.15625 -0.203125 -0.09375 -0.5l0.4375 -2.03125l0.546875 -1.421875l1.015625 0.484375l-0.640625 2.96875q-0.0625 0.296875 -0.296875 0.5q-0.234375 0.1875 -0.53125 0.1875zm12.77655 0q-0.296875 0 -0.453125 -0.1875q-0.15625 -0.203125 -0.09375 -0.5l0.703125 -3.265625q0.15625 -0.765625 -0.015625 -1.25q-0.171875 -0.484375 -0.609375 -0.703125q-0.421875 -0.234375 -1.03125 -0.234375q-0.5625 0 -1.0625 0.234375q-0.5 0.21875 -0.84375 0.59375q-0.34375 0.375 -0.453125 0.875l-0.84375 0q0.1875 -0.84375 0.71875 -1.5q0.546875 -0.65625 1.328125 -1.046875q0.796875 -0.390625 1.6875 -0.390625q0.921875 0 1.5625 0.390625q0.640625 0.390625 0.890625 1.15625q0.265625 0.765625 0.03125 1.875l-0.703125 3.265625q-0.0625 0.296875 -0.296875 0.5q-0.21875 0.1875 -0.515625 0.1875zm-5.484375 0q-0.28125 0 -0.4375 -0.1875q-0.15625 -0.203125 -0.09375 -0.5l1.265625 -5.9375q0.0625 -0.3125 0.296875 -0.5q0.234375 -0.1875 0.515625 -0.1875q0.3125 0 0.453125 0.1875q0.15625 0.1875 0.09375 0.5l-1.265625 5.9375q-0.0625 0.296875 -0.296875 0.5q-0.21875 0.1875 -0.53125 0.1875zm0.5625 -2.671875q-0.28125 0 -0.4375 -0.1875q-0.15625 -0.1875 -0.09375 -0.484375l1.359375 -6.40625q0.0625 -0.296875 0.296875 -0.484375q0.25 -0.1875 0.53125 -0.1875q0.3125 0 0.453125 0.1875q0.140625 0.1875 0.078125 0.484375l-1.359375 6.40625q-0.0625 0.296875 -0.296875 0.484375q-0.21875 0.1875 -0.53125 0.1875zm15.88208 2.65625q-0.296875 0 -0.4375 -0.203125q-0.125 -0.203125 -0.09375 -0.453125q0.03125 -0.265625 0.21875 -0.46875l8.25 -8.0625l-5.84375 0q-0.328125 0 -0.46875 -0.15625q-0.140625 -0.171875 -0.0625 -0.421875q0.046875 -0.28125 0.28125 -0.453125q0.25 -0.1875 0.546875 -0.1875l6.875 0q0.296875 0 0.4375 0.1875q0.140625 0.1875 0.109375 0.453125q-0.015625 0.25 -0.21875 0.453125l-8.265625 8.09375l5.984375 0q0.296875 0 0.4375 0.1875q0.15625 0.171875 0.109375 0.40625q-0.078125 0.296875 -0.296875 0.46875q-0.21875 0.15625 -0.515625 0.15625l-7.046875 0zm19.74768 0.015625q-0.296875 0 -0.453125 -0.1875q-0.15625 -0.203125 -0.09375 -0.5l0.703125 -3.265625q0.15625 -0.765625 -0.015625 -1.25q-0.171875 -0.484375 -0.609375 -0.703125q-0.421875 -0.234375 -1.03125 -0.234375q-0.5625 0 -1.0625 0.234375q-0.5 0.21875 -0.84375 0.59375q-0.34375 0.375 -0.453125 0.875l-0.84375 0q0.1875 -0.84375 0.71875 -1.5q0.546875 -0.65625 1.328125 -1.046875q0.796875 -0.390625 1.6875 -0.390625q0.921875 0 1.5625 0.390625q0.640625 0.390625 0.890625 1.15625q0.265625 0.765625 0.03125 1.875l-0.703125 3.265625q-0.0625 0.296875 -0.296875 0.5q-0.21875 0.1875 -0.515625 0.1875zm-5.484375 0q-0.28125 0 -0.4375 -0.1875q-0.15625 -0.203125 -0.09375 -0.5l1.265625 -5.9375q0.0625 -0.3125 0.296875 -0.5q0.234375 -0.1875 0.515625 -0.1875q0.3125 0 0.453125 0.1875q0.15625 0.1875 0.09375 0.5l-1.265625 5.9375q-0.0625 0.296875 -0.296875 0.5q-0.21875 0.1875 -0.53125 0.1875zm0.5625 -2.671875q-0.28125 0 -0.4375 -0.1875q-0.15625 -0.1875 -0.09375 -0.484375l1.359375 -6.40625q0.0625 -0.296875 0.296875 -0.484375q0.25 -0.1875 0.53125 -0.1875q0.3125 0 0.453125 0.1875q0.140625 0.1875 0.078125 0.484375l-1.359375 6.40625q-0.0625 0.296875 -0.296875 0.484375q-0.21875 0.1875 -0.53125 0.1875zm14.789429 2.703125q-0.96875 0 -1.640625 -0.484375q-0.65625 -0.484375 -0.9375 -1.3125q-0.265625 -0.828125 -0.03125 -1.890625q0.21875 -1.046875 0.875 -1.890625q0.671875 -0.84375 1.609375 -1.328125q0.9375 -0.484375 1.96875 -0.484375q1.046875 0 1.765625 0.484375q0.734375 0.484375 1.03125 1.328125q0.3125 0.84375 0.09375 1.890625l-0.515625 0q-0.234375 1.0625 -0.859375 1.890625q-0.625 0.828125 -1.5 1.3125q-0.875 0.484375 -1.859375 0.484375zm0.53125 -1.1875q0.6875 0 1.28125 -0.328125q0.59375 -0.328125 1.015625 -0.890625q0.4375 -0.578125 0.59375 -1.28125q0.140625 -0.71875 -0.046875 -1.28125q-0.171875 -0.5625 -0.640625 -0.890625q-0.453125 -0.328125 -1.140625 -0.328125q-0.65625 0 -1.265625 0.328125q-0.609375 0.328125 -1.0625 0.890625q-0.4375 0.5625 -0.578125 1.28125q-0.15625 0.703125 0.03125 1.28125q0.203125 0.5625 0.671875 0.890625q0.484375 0.328125 1.140625 0.328125zm2.734375 1.15625q-0.28125 0 -0.4375 -0.1875q-0.15625 -0.203125 -0.09375 -0.5l0.4375 -2.03125l0.546875 -1.421875l1.015625 0.484375l-0.640625 2.96875q-0.0625 0.296875 -0.296875 0.5q-0.234375 0.1875 -0.53125 0.1875zm9.90155 0.03125q-1.078125 0 -1.8125 -0.46875q-0.71875 -0.46875 -1.015625 -1.296875q-0.28125 -0.84375 -0.046875 -1.921875q0.21875 -1.09375 0.859375 -1.921875q0.65625 -0.828125 1.578125 -1.296875q0.9375 -0.484375 2.015625 -0.484375q1.078125 0 1.796875 0.484375q0.71875 0.46875 1.015625 1.296875q0.296875 0.828125 0.078125 1.921875q-0.234375 1.078125 -0.890625 1.921875q-0.640625 0.828125 -1.578125 1.296875q-0.921875 0.46875 -2.0 0.46875zm0.265625 -1.1875q0.703125 0 1.296875 -0.3125q0.59375 -0.328125 1.015625 -0.890625q0.421875 -0.5625 0.578125 -1.296875q0.15625 -0.734375 -0.03125 -1.296875q-0.171875 -0.5625 -0.640625 -0.875q-0.453125 -0.328125 -1.15625 -0.328125q-0.6875 0 -1.296875 0.328125q-0.59375 0.3125 -1.03125 0.875q-0.421875 0.5625 -0.578125 1.296875q-0.15625 0.734375 0.03125 1.296875q0.1875 0.5625 0.65625 0.890625q0.46875 0.3125 1.15625 0.3125z" fill-rule="nonzero"/></g></svg>